<?xml version="1.0" encoding="UTF-8"?>
<svg width="40px" height="46px" viewBox="0 0 40 46" version="1.1" xmlns="http://www.w3.org/2000/svg" xmlns:xlink="http://www.w3.org/1999/xlink">
    <title>Shape</title>
    <g id="Page-1" stroke="none" stroke-width="1" fill="none" fill-rule="evenodd">
        <path d="M7.67419648,7.04586613 L19.881042,0 L32.0879398,7.04586613 L27.6000522,9.64878876 L19.881042,5.20587135 L12.1620319,9.64878876 L7.67419648,7.04586613 Z M32.0879398,15.9317531 L27.6000522,13.3288044 L19.881042,17.7717479 L12.1620319,13.3288044 L7.67419648,15.9317531 L7.67419648,21.1375984 L15.3932327,25.5805419 L15.3932327,34.4663506 L19.881042,37.0693515 L24.3688514,34.4663506 L24.3688514,25.5805419 L32.0879398,21.1375984 L32.0879398,15.9317531 Z M32.0879398,30.0235897 L32.0879398,24.817614 L27.6000522,27.4205888 L27.6000522,32.6263298 L32.0879398,30.0235897 Z M35.2741965,31.8636106 L27.5551863,36.3063715 L27.5551863,41.5123733 L39.7620841,34.4663506 L39.7620841,20.3746705 L35.2741965,22.9776193 L35.2741965,31.8636106 Z M30.7865697,11.4888096 L35.2741965,14.0917323 L35.2741965,19.2976036 L39.7620841,16.6946549 L39.7620841,11.4888096 L35.2741965,8.885887 L30.7865697,11.4888096 Z M15.3932327,38.1912582 L15.3932327,43.39726 L19.881042,46 L24.3688514,43.39726 L24.3688514,38.1912582 L19.881042,40.7942591 L15.3932327,38.1912582 Z M7.67419648,30.0235897 L12.1620319,32.6263298 L12.1620319,27.4205888 L7.67419648,24.817614 L7.67419648,30.0235897 Z M15.3932327,11.4888096 L19.881042,14.0917323 L24.3688514,11.4888096 L19.881042,8.885887 L15.3932327,11.4888096 Z M4.48780933,14.0917323 L8.97561866,11.4888096 L4.48780933,8.885887 L0,11.4888096 L0,16.6946549 L4.48780933,19.2976036 L4.48780933,14.0917323 Z M4.48780933,22.9776193 L0,20.3746705 L0,34.4663506 L12.2068456,41.5123733 L12.2068456,36.3063715 L4.48780933,31.8636106 L4.48780933,22.9776193 Z" id="Shape" fill="#F0B90B" fill-rule="nonzero"></path>
    </g>
</svg>