<svg width="218" height="100" viewBox="0 0 218 100" fill="none" xmlns="http://www.w3.org/2000/svg">
    <path d="M2.65519 15.2324C1.26898 7.27995 7.38972 0 15.4621 0H180.14C185.97 0 191.087 3.88097 192.659 9.49481L213.379 83.4948C215.7 91.7843 209.468 100 200.86 100H28.3612C22.0427 100 16.6393 95.4569 15.5543 89.2324L2.65519 15.2324Z" fill="url(#paint0_linear_3965_19896)" />
    <path d="M81.3294 65.6006C80.0897 66.8664 80.9865 69 82.7583 69H110V60.7507H94.8904L103.686 52.9804C105.305 51.5966 106.618 50.071 107.626 48.4034C108.633 46.7003 109.137 44.8375 109.137 42.8151C109.137 41.3959 108.831 39.9944 108.219 38.6106C107.608 37.2269 106.69 35.9673 105.467 34.8319C104.28 33.6611 102.787 32.7386 100.988 32.0644C99.1894 31.3548 97.1209 31 94.7825 31C91.5447 31 88.7926 31.6564 86.5261 32.9692C84.2957 34.282 82.6228 36.0383 81.5076 38.2381C80.3924 40.4379 79.8347 42.8683 79.8347 45.5294H88.7926C88.7926 44.1811 89.0084 42.9925 89.4401 41.9636C89.9078 40.9346 90.5734 40.1363 91.4368 39.5686C92.3361 39.0009 93.3614 38.7171 94.5126 38.7171C95.3761 38.7171 96.1315 38.859 96.7791 39.1429C97.4266 39.3912 97.9663 39.746 98.398 40.2073C98.8297 40.6331 99.1535 41.1298 99.3693 41.6975C99.5852 42.2652 99.6931 42.8329 99.6931 43.4006C99.6931 44.394 99.4952 45.3343 99.0995 46.2213C98.7397 47.0728 98.1821 47.9421 97.4266 48.8291C96.7071 49.7162 95.8437 50.7096 94.8364 51.8095L81.3294 65.6006Z" fill="#5A3505" />
    <defs>
        <linearGradient id="paint0_linear_3965_19896" x1="95" y1="12.1642" x2="95" y2="100" gradientUnits="userSpaceOnUse">
            <stop stop-color="#FFB313" />
            <stop offset="1" stop-color="#FFD339" />
        </linearGradient>
    </defs>
</svg>