<svg width="206" height="78" viewBox="0 0 206 78" fill="none" xmlns="http://www.w3.org/2000/svg">
    <path d="M0 13C0 5.8203 5.8203 0 13 0H188.399C197.106 0 203.352 8.39183 200.852 16.732L185.268 68.732C183.62 74.2326 178.558 78 172.815 78H13C5.82028 78 0 72.1797 0 65V13Z" fill="url(#paint0_linear_3965_19899)" />
    <path d="M114.469 39.4516C117.118 39.4516 119.512 39.1346 121.651 38.5005C123.79 37.8665 125.482 36.9154 126.727 35.6473C128.004 34.3792 128.642 32.7941 128.642 30.8919C128.642 29.18 128.179 27.6266 127.253 26.2317C126.36 24.8368 125.035 23.7272 123.279 22.9029C121.523 22.0786 119.385 21.6665 116.863 21.6665C114.501 21.6665 112.426 22.1262 110.638 23.0456C108.851 23.9332 107.462 25.1696 106.473 26.7548C105.515 28.3082 105.036 30.0677 105.036 32.0332H112.458C112.458 30.8602 112.873 29.9092 113.703 29.18C114.533 28.4508 115.586 28.0863 116.863 28.0863C117.725 28.0863 118.427 28.2289 118.97 28.5142C119.512 28.7679 119.927 29.1483 120.215 29.6555C120.502 30.1628 120.646 30.7334 120.646 31.3675C120.646 31.9698 120.502 32.5405 120.215 33.0794C119.927 33.6183 119.496 34.0939 118.922 34.506C118.379 34.9181 117.725 35.251 116.959 35.5046C116.225 35.7266 115.395 35.8375 114.469 35.8375V39.4516ZM116.48 56.3332C119.225 56.3332 121.571 55.921 123.519 55.0968C125.466 54.2408 126.966 53.0837 128.02 51.6254C129.073 50.1353 129.6 48.4234 129.6 46.4895C129.6 44.8093 129.233 43.3669 128.498 42.1622C127.764 40.9575 126.711 39.9747 125.338 39.2138C123.965 38.4213 122.353 37.8506 120.502 37.5019C118.682 37.1215 116.671 36.9313 114.469 36.9313V41.0209C115.682 41.0209 116.735 41.1318 117.629 41.3537C118.523 41.5757 119.257 41.9085 119.832 42.3524C120.438 42.7645 120.885 43.2559 121.172 43.8265C121.46 44.3972 121.603 45.0312 121.603 45.7287C121.603 46.6481 121.396 47.4248 120.981 48.0588C120.566 48.6929 119.991 49.1526 119.257 49.4379C118.555 49.7232 117.725 49.8659 116.767 49.8659C115.873 49.8659 115.012 49.6915 114.182 49.3428C113.384 48.994 112.745 48.4551 112.266 47.7259C111.787 46.9968 111.548 46.0933 111.548 45.0154H103.6C103.6 46.4737 103.887 47.8845 104.461 49.2477C105.068 50.6109 105.914 51.8314 106.999 52.9093C108.116 53.9872 109.473 54.8273 111.069 55.4297C112.665 56.032 114.469 56.3332 116.48 56.3332Z" fill="#5A3505" />
    <defs>
        <linearGradient id="paint0_linear_3965_19899" x1="120.933" y1="0" x2="120.933" y2="78" gradientUnits="userSpaceOnUse">
            <stop stop-color="#FFB313" />
            <stop offset="1" stop-color="#FFD339" />
        </linearGradient>
    </defs>
</svg>