<svg width="105" height="33" viewBox="0 0 105 33" fill="none" xmlns="http://www.w3.org/2000/svg">
<path d="M57.7 17.7701H68.85V14.4701H57.7V17.7701ZM57.65 11.8201H65.31V8.52008H57.65V11.8201ZM57.67 5.87008H62.28V2.58008H57.67V5.88008V5.87008Z" fill="#FFD339"/>
<path d="M91.15 18.19H80V14.89H91.15V18.19ZM91.2 12.24H83.54V8.94H91.2V12.24ZM91.18 6.29H86.57V3H91.18V6.3V6.29Z" fill="#FFD339"/>
<path d="M44.59 2.58008V17.7701H55.58V14.4701H48.04V2.58008H44.59Z" fill="white"/>
<path d="M93.47 2.58008V17.7701H104.46V14.4701H96.92V2.58008H93.47Z" fill="white"/>
<path d="M78.54 2.48999L78.49 2.62999L74.31 14.04L70.15 2.62999L70.1 2.48999H66.62L66.72 2.76999L72.37 17.5L72.42 17.64H72.57H76.03H76.18L76.23 17.5L81.88 2.76999L81.98 2.48999H78.54Z" fill="white"/>
<path d="M44.57 25.5601H46.32V30.4701H47.67V25.5601H49.42V24.3101H44.57V25.5601Z" fill="white"/>
<path d="M52.72 30.4701H56.63V29.2201H54.07V27.9501H56.34V26.7701H54.07V25.5601H56.63V24.3101H52.72V30.4701Z" fill="white"/>
<path d="M64.71 27.3301C64.88 27.0501 64.96 26.7101 64.96 26.3101C64.96 25.6701 64.76 25.1801 64.35 24.8301C63.94 24.4801 63.36 24.3101 62.61 24.3101H60.23V30.4701H61.58V28.3101H62.62L63.54 30.4701H65.01L63.93 28.0201C64.27 27.8401 64.53 27.6101 64.7 27.3301H64.71ZM63.29 26.9101C63.13 27.0501 62.9 27.1301 62.6 27.1301H61.58V25.5101H62.61C62.91 25.5101 63.14 25.5801 63.3 25.7101C63.46 25.8501 63.54 26.0401 63.54 26.3101C63.54 26.5801 63.46 26.7701 63.29 26.9201V26.9101Z" fill="white"/>
<path d="M71.6 28.9101L69.77 24.3101H68.46V30.4701H69.77V28.7501C69.77 28.4101 69.77 28.1101 69.76 27.8401C69.76 27.5701 69.73 27.3301 69.69 27.1001L70.99 30.4701H72.22L73.53 27.1001C73.51 27.2201 73.5 27.3301 73.49 27.4401C73.49 27.5501 73.47 27.6701 73.47 27.8201C73.47 27.9601 73.47 28.1401 73.47 28.3601V30.4701H74.78V24.3101H73.46L71.62 28.9101H71.6Z" fill="white"/>
<path d="M79.89 24.3101H78.54V30.4701H79.89V24.3101Z" fill="white"/>
<path d="M87.6 28.2301L85 24.3101H83.67V30.4701H85V26.5601L87.6 30.4701H88.93V24.3101H87.6V28.2301Z" fill="white"/>
<path d="M94.34 24.3101L92.14 30.4701H93.55L93.99 29.1701H95.98L96.41 30.4701H97.84L95.65 24.3101H94.33H94.34ZM94.38 28.0401L94.82 26.7201C94.86 26.6101 94.89 26.5001 94.92 26.3901C94.95 26.2801 94.97 26.1901 94.98 26.1201C94.99 26.1901 95.01 26.2801 95.05 26.3901C95.08 26.5001 95.12 26.6101 95.15 26.7101L95.59 28.0301H94.38V28.0401Z" fill="white"/>
<path d="M102.41 29.2201V24.3101H101.06V30.4701H101.3H102.41H104.84V29.2201H102.41Z" fill="white"/>
<path d="M3.97999 18.66C3.82999 17.86 3.73999 17.04 3.73999 16.2C3.73999 8.77 9.75999 2.75 17.19 2.75C20.9 2.75 24.26 4.25 26.7 6.69L29.63 5.88L29.67 5.86C26.7 2.28 22.21 0 17.2 0C8.24999 0 0.98999 7.25 0.98999 16.2C0.98999 17.79 1.22999 19.32 1.65999 20.77L3.97999 18.66Z" fill="white"/>
<path d="M22.18 23.2101L21.07 24.3201L16.17 19.3501L12.25 23.2701V31.6001C13.81 32.1001 15.47 32.3901 17.2 32.3901C18.93 32.3901 20.61 32.1101 22.19 31.6001V23.2001L22.18 23.2101Z" fill="white"/>
<path d="M11.06 24.4599L8.44003 27.2L6.28003 24.91L4.59003 26.37C6.29003 28.47 8.52003 30.12 11.06 31.16V24.45V24.4599Z" fill="white"/>
<path d="M33.35 15.35L31.66 13.73L23.36 22.03V31.17C29.25 28.74 33.4 22.95 33.4 16.19C33.4 15.9 33.37 15.62 33.36 15.34L33.35 15.35Z" fill="white"/>
<path d="M35.46 5.75L27.8 7.85L29.41 9.42L21.36 17.46L16.46 12.56L8.48 20.54L6.42 18.48L0 24.9L2.12 27.02L6.42 22.72L8.48 24.78L16.46 16.8L21.36 21.71L31.56 11.51L33.49 13.4L35.46 5.75Z" fill="#FFD339"/>
</svg>
