<svg id="e2met1Jgsdp1" xmlns="http://www.w3.org/2000/svg" xmlns:xlink="http://www.w3.org/1999/xlink" viewBox="0 0 282 127" shape-rendering="geometricPrecision" text-rendering="geometricPrecision">
    <style>#e2met1Jgsdp2_to {animation: e2met1Jgsdp2_to__to 1200ms linear infinite normal forwards}@keyframes e2met1Jgsdp2_to__to { 0% {transform: translate(160.686407px,37.90018px)} 48% {transform: translate(86.381608px,37.90018px)} 100% {transform: translate(86.381608px,37.90018px)}} #e2met1Jgsdp3_to {animation: e2met1Jgsdp3_to__to 1200ms linear infinite normal forwards}@keyframes e2met1Jgsdp3_to__to { 0% {transform: translate(321.911877px,0px)} 48% {transform: translate(383.603px,0px)} 100% {transform: translate(383.603px,0px)}} #e2met1Jgsdp4 {animation: e2met1Jgsdp4_c_o 1200ms linear infinite normal forwards}@keyframes e2met1Jgsdp4_c_o { 0% {opacity: 0} 48% {opacity: 0} 72% {opacity: 1} 100% {opacity: 1}} #e2met1Jgsdp5 {animation: e2met1Jgsdp5_c_o 1200ms linear infinite normal forwards}@keyframes e2met1Jgsdp5_c_o { 0% {opacity: 0} 48% {opacity: 0} 72% {opacity: 1} 100% {opacity: 1}} #e2met1Jgsdp6 {animation: e2met1Jgsdp6_c_o 1200ms linear infinite normal forwards}@keyframes e2met1Jgsdp6_c_o { 0% {opacity: 0} 48% {opacity: 0} 72% {opacity: 1} 100% {opacity: 1}} #e2met1Jgsdp7 {animation: e2met1Jgsdp7_c_o 1200ms linear infinite normal forwards}@keyframes e2met1Jgsdp7_c_o { 0% {opacity: 0} 60% {opacity: 0} 72% {opacity: 1} 100% {opacity: 1}}</style>
    <g id="e2met1Jgsdp2_to" transform="translate(160.686407,37.90018)">
        <path d="M61.612328,16.706096h21.696664v-16.248798h-21.696664v16.248798Zm-.092814,29.318483h36.061682v-16.248798h-36.061682v16.248798Zm.219382,29.318483h52.517997v-16.248798h-52.517997v16.248798Z" transform="translate(-87.888203,-37.90018)" fill="#ffffff82" />
    </g>
    <g id="e2met1Jgsdp3_to" transform="translate(321.911877,0)">
        <path d="M165.525523,16.706096h21.696663v-16.248798h-21.696663v16.248798Zm-.092813,29.318483h36.061682v-16.248798h-36.061682v16.248798Zm.219381,29.318483h52.517996v-16.248798h-52.517996v16.248798Z" transform="scale(-1,1) translate(0,0)" fill="#ffffff82" />
    </g>
    <polygon id="e2met1Jgsdp4" points="0,0.457156 0,75.34292 51.736526,75.34292 51.736526,59.094476 16.248798,59.094476 16.248798,0.457156" opacity="0" fill="#ffffff82" />
    <polygon id="e2met1Jgsdp5" points="230.263474,0.457156 230.263474,75.34292 282,75.34292 282,59.094476 246.512626,59.094476 246.512626,0.457156" opacity="0" fill="#ffffff82" />
    <polygon id="e2met1Jgsdp6" points="159.915648,0 159.675449,0.687042 139.987204,56.980648 120.398925,0.688454 120.159079,0 103.741788,0 104.245501,1.377615 130.821116,74.045065 131.066968,74.718331 131.784034,74.718331 148.082285,74.718331 148.798998,74.718331 149.045203,74.045065 175.620818,1.377615 176.124531,0" transform="translate(-5.615441 0)" opacity="0" fill="#ffffff82" />
</svg>