<svg width="19" height="16" viewBox="0 0 19 16" fill="none" xmlns="http://www.w3.org/2000/svg">
    <path fill-rule="evenodd" clip-rule="evenodd" d="M0 1.33333C0 0.596954 0.596954 0 1.33333 0H17.3333C18.0697 0 18.6667 0.596954 18.6667 1.33333C18.6667 2.06971 18.0697 2.66667 17.3333 2.66667H1.33333C0.596953 2.66667 0 2.06971 0 1.33333ZM0 8.00026C0 7.26388 0.596954 6.66693 1.33333 6.66693H17.3333C18.0697 6.66693 18.6667 7.26388 18.6667 8.00026C18.6667 8.73664 18.0697 9.33359 17.3333 9.33359H1.33333C0.596953 9.33359 0 8.73664 0 8.00026ZM1.33333 13.3331C0.596954 13.3331 0 13.93 0 14.6664C0 15.4028 0.596953 15.9997 1.33333 15.9997H17.3333C18.0697 15.9997 18.6667 15.4028 18.6667 14.6664C18.6667 13.93 18.0697 13.3331 17.3333 13.3331H1.33333Z" fill="white" />
</svg>