<svg width="14" height="13" viewBox="0 0 14 13" fill="none" xmlns="http://www.w3.org/2000/svg">
    <mask id="mask0_2953_16837" style="mask-type:luminance" maskUnits="userSpaceOnUse" x="0" y="2" width="11" height="11">
        <path fill-rule="evenodd" clip-rule="evenodd" d="M0 2.36572H10.6419V13H0V2.36572Z" fill="white" />
    </mask>
    <g mask="url(#mask0_2953_16837)">
        <path fill-rule="evenodd" clip-rule="evenodd" d="M0.486121 13C0.119563 12.8842 -0.00083492 12.6252 4.35229e-06 12.2537C0.00679483 9.19148 0.00381923 6.1293 0.00387009 3.06713C0.00387009 2.59266 0.229227 2.36588 0.70128 2.36585C2.61304 2.36575 4.52478 2.36554 6.43651 2.36605C6.76759 2.36613 6.98967 2.52195 7.06971 2.80601C7.16238 3.13485 6.94064 3.48351 6.60345 3.53468C6.5286 3.54602 6.4519 3.54935 6.37609 3.5494C4.69693 3.55022 3.01783 3.55128 1.33869 3.54734C1.21962 3.54706 1.18262 3.57234 1.18282 3.69849C1.18674 6.35461 1.18666 9.01075 1.183 11.6669C1.18284 11.7895 1.21438 11.821 1.33697 11.8208C3.99311 11.8172 6.64926 11.8171 9.30538 11.821C9.43157 11.8212 9.45675 11.7841 9.45647 11.6651C9.45258 9.9733 9.4536 8.28148 9.454 6.58968C9.4541 6.26458 9.58673 6.04517 9.83671 5.95069C10.1937 5.81579 10.5752 6.04441 10.6301 6.42816C10.639 6.49057 10.6377 6.55471 10.6377 6.61804C10.6381 8.49595 10.6335 10.3739 10.6419 12.2518C10.6436 12.6227 10.5223 12.8824 10.157 13H0.486121Z" fill="#ADABAB" />
    </g>
    <path fill-rule="evenodd" clip-rule="evenodd" d="M13.0017 5.43595C12.9571 5.52107 12.9324 5.61535 12.8683 5.6917C12.713 5.87652 12.4703 5.95302 12.2395 5.88395C12.0154 5.81685 11.8551 5.6238 11.8297 5.38636C11.8226 5.31927 11.8202 5.25141 11.8201 5.18389C11.8196 4.18994 11.8197 3.19601 11.8197 2.20208V2.05597C11.7538 2.0676 11.7281 2.11439 11.6949 2.14758C9.73219 4.10876 7.76972 6.07014 5.80897 8.0332C5.63741 8.20494 5.44954 8.3128 5.19814 8.25817C4.77265 8.1657 4.59045 7.66137 4.86072 7.32096C4.90266 7.26819 4.95101 7.22025 4.9988 7.17243C6.94835 5.22209 8.89811 3.27195 10.8488 1.32265C10.8839 1.28753 10.9299 1.26322 10.9876 1.22186C10.904 1.17481 10.8532 1.18659 10.8059 1.18656C9.79928 1.18575 8.79264 1.18603 7.78602 1.1858C7.66738 1.18577 7.5494 1.18107 7.43887 1.12934C7.19466 1.01507 7.06165 0.760339 7.10715 0.492815C7.15191 0.229817 7.3671 0.0317742 7.63648 0.00768961C7.68688 0.00318806 7.73788 0.00415449 7.78861 0.00412906C9.27741 0.00397647 10.7663 0.00967335 12.255 3.44297e-05C12.6266 -0.00235623 12.8859 0.119364 13.0017 0.486278V5.43595Z" fill="#ADABAB" />
</svg>