<svg width="33" height="33" viewBox="0 0 33 33" fill="none" xmlns="http://www.w3.org/2000/svg">
<path fill-rule="evenodd" clip-rule="evenodd" d="M4.82693 32.1266C4.78389 32.0047 4.66319 31.9716 4.57072 31.9097C3.11101 30.9339 1.65198 29.9569 0.185936 28.9905C-0.0391228 28.8421 -0.0805609 28.7736 0.177037 28.6046C1.66457 27.629 3.14118 26.6365 4.62259 25.6515C4.6958 25.6028 4.75782 25.5236 4.89632 25.5365C4.89632 26.1562 4.90445 26.776 4.89194 27.3954C4.88756 27.611 4.93442 27.6924 5.1729 27.6918C8.83732 27.6817 12.5024 27.723 16.1661 27.6699C21.6287 27.5906 26.6283 23.4894 27.8535 18.1609C28.0927 17.1204 28.2117 16.0686 28.2089 15.0005C28.2031 12.8619 28.2113 10.7234 28.2016 8.58484C28.2004 8.33489 28.2495 8.24228 28.5203 8.25389C29.0626 8.27711 29.6068 8.26787 30.1499 8.25702C30.3464 8.25313 30.4336 8.28601 30.4325 8.51642C30.4203 11.0017 30.4772 13.4887 30.4051 15.9721C30.2173 22.4535 25.3733 28.2045 19.0293 29.5588C17.9291 29.7938 16.8181 29.9084 15.6933 29.9075C12.2138 29.9048 8.73428 29.9099 5.2548 29.9C4.97412 29.8992 4.87678 29.9562 4.88874 30.2547C4.91377 30.8778 4.89632 31.5025 4.89632 32.1266H4.82693Z" fill="white"/>
<path fill-rule="evenodd" clip-rule="evenodd" d="M17.6229 15.9775C17.3257 15.6001 16.8721 15.3235 16.2621 15.1475L15.3764 14.8835C15.0166 14.7819 14.7419 14.6783 14.5523 14.5727C14.3626 14.4671 14.2678 14.3068 14.2678 14.0917C14.2678 13.9001 14.3382 13.7447 14.479 13.6254C14.6198 13.5061 14.8309 13.4465 15.1125 13.4465C15.4175 13.4465 15.654 13.5238 15.8222 13.6782C15.9903 13.8327 16.0744 14.0389 16.0744 14.297H17.8517C17.8517 13.6792 17.6571 13.165 17.268 12.7543C16.97 12.4399 16.5932 12.2199 16.1381 12.0935V10.7643H14.5074V12.0237C13.9175 12.1205 13.4455 12.3472 13.0918 12.7045C12.6909 13.1092 12.4906 13.6245 12.4906 14.2501C12.4906 14.7389 12.6127 15.1328 12.8572 15.432C13.1015 15.7311 13.3528 15.9414 13.6109 16.0626C13.8689 16.1837 14.1779 16.305 14.5377 16.4262L15.2298 16.6491C15.5035 16.7391 15.6922 16.8055 15.7957 16.8485C15.8994 16.8916 15.9932 16.957 16.0773 17.045C16.1614 17.133 16.2035 17.2494 16.2035 17.394C16.2035 17.5974 16.1252 17.7606 15.9689 17.8837C15.8124 18.0069 15.5778 18.0686 15.265 18.0686C14.9208 18.0686 14.6549 17.9914 14.4672 17.8368C14.2796 17.6824 14.1779 17.4683 14.1622 17.1946H12.3732C12.3967 17.8398 12.6245 18.3687 13.0566 18.7812C13.4375 19.145 13.9212 19.3831 14.5074 19.4961V20.7483H16.1381V19.4649C16.638 19.3547 17.0609 19.1467 17.4059 18.8399C17.8478 18.4468 18.0687 17.9298 18.0687 17.2884C18.0687 16.7919 17.9201 16.3548 17.6229 15.9775ZM18.5114 24.4849C20.4258 24.183 22.036 23.3174 23.4316 21.8594C22.923 21.8594 22.5082 21.8669 22.0939 21.8558C21.9229 21.8512 21.8511 21.9646 21.7616 22.0669C21.2494 22.6534 20.6678 23.1606 20.0265 23.6022C19.5433 23.9348 19.0207 24.1974 18.5114 24.4849ZM23.4042 10.2031C22.2475 8.84726 19.705 7.50935 18.4636 7.59834C19.8071 8.19628 20.9364 9.01649 21.8607 10.1092C21.9177 10.1767 21.9843 10.2044 22.0715 10.204C22.4949 10.202 22.9183 10.2031 23.4042 10.2031ZM25.1355 19.0845C24.6248 19.0845 24.1532 19.0839 23.6817 19.085C23.6027 19.0852 23.5226 19.0778 23.4848 19.181C23.2155 19.9167 22.8457 20.6027 22.3784 21.3033C22.8869 21.3033 23.333 21.3023 23.7789 21.3043C23.8543 21.3046 23.915 21.2819 23.9593 21.2228C24.4437 20.5751 24.8511 19.8858 25.1355 19.0845ZM25.1373 12.9783C24.8495 12.1791 24.4459 11.488 23.9588 10.8422C23.9332 10.8082 23.8866 10.7684 23.8493 10.7679C23.3755 10.7629 22.9016 10.7646 22.3793 10.7646C22.8427 11.4517 23.1974 12.1105 23.4578 12.8171C23.4991 12.9292 23.5544 12.9823 23.6807 12.9807C24.1523 12.9747 24.6241 12.9783 25.1373 12.9783ZM23.7009 18.5279C24.2187 18.5279 24.7113 18.5242 25.2036 18.5302C25.3517 18.5321 25.3613 18.4318 25.3903 18.3328C25.5628 17.744 25.6435 17.1402 25.6977 16.5311C25.712 16.37 25.6725 16.3019 25.4976 16.306C25.0829 16.3157 24.6678 16.3116 24.2529 16.3076C24.1234 16.3064 24.0389 16.3205 24.0306 16.4862C23.9964 17.1657 23.8831 17.8344 23.7009 18.5279ZM23.7012 13.5344C23.8837 14.2311 23.9969 14.91 24.0334 15.5996C24.0415 15.7526 24.1307 15.7548 24.2416 15.7543C24.6565 15.7527 25.0714 15.7488 25.4862 15.7562C25.6452 15.7591 25.7147 15.7183 25.6989 15.5427C25.6433 14.9222 25.56 14.3077 25.3859 13.7073C25.3527 13.5929 25.313 13.5304 25.1807 13.5321C24.6978 13.5382 24.2148 13.5344 23.7012 13.5344ZM15.7608 25.1876C14.4921 25.2462 13.0316 25.1252 11.6199 24.5842C8.00824 23.2001 5.67213 19.7321 5.73158 15.8086C5.78852 12.0552 8.28788 8.6279 11.8741 7.38545C12.8318 7.05367 13.8169 6.86595 14.8308 6.87777C16.112 6.89272 17.3952 6.80129 18.6728 7.00737C22.6148 7.64312 25.8188 11.0521 26.2046 15.0418C26.6859 20.0187 23.3418 24.3324 18.4054 25.0977C17.602 25.2222 16.791 25.1888 15.7608 25.1876Z" fill="white"/>
<path opacity="0.427897" fill-rule="evenodd" clip-rule="evenodd" d="M27.097 6.59459C27.097 5.8996 27.0864 5.2774 27.1025 4.65583C27.1085 4.42243 27.0303 4.37063 26.8096 4.37112C23.1561 4.37939 19.5021 4.34213 15.8492 4.39017C10.1053 4.46575 4.92075 8.97165 3.98839 14.6275C3.8526 15.4511 3.7828 16.2769 3.78461 17.1113C3.7894 19.2271 3.78203 21.3429 3.79163 23.4586C3.79281 23.7178 3.744 23.8219 3.45672 23.8085C2.91448 23.7833 2.37015 23.7952 1.82686 23.8045C1.6454 23.8077 1.56099 23.7757 1.56183 23.5636C1.57254 21.0548 1.50287 18.5434 1.59172 16.0375C1.81664 9.69591 6.36454 4.15753 12.5454 2.60228C13.772 2.29365 15.0197 2.15203 16.2858 2.15377C19.7659 2.15863 23.246 2.15119 26.7261 2.16301C27.0306 2.16406 27.1192 2.09335 27.1049 1.785C27.0777 1.19708 27.097 0.607069 27.097 0.0254762C27.2055 -0.0425907 27.2609 0.0429275 27.3203 0.0823493C28.8309 1.0866 30.3404 2.09258 31.8473 3.10246C31.9384 3.16358 32.1639 3.21885 31.9205 3.38099C30.3353 4.43703 28.7501 5.49322 27.097 6.59459Z" fill="white"/>
</svg>
