<svg width="18" height="12" viewBox="0 0 18 12" fill="none" xmlns="http://www.w3.org/2000/svg">
    <path d="M6 0H5.9589C5.42137 0.0431507 5.0626 0.376438 4.70507 0.738082C3.3637 2.09548 2.01205 3.44301 0.657534 4.78726C0.373151 5.06959 0.108904 5.35603 0 5.75342V6.24658C0.109726 6.64315 0.373562 6.93041 0.657534 7.21233C2.00712 8.55206 3.35342 9.89507 4.69068 11.2471C5.05233 11.6129 5.41192 11.9573 5.95849 12H5.99959C6.09082 11.9416 6.19932 11.9647 6.29795 11.9384C7.29452 11.6733 7.62575 10.4642 6.89548 9.71918C6.16192 8.97123 5.41521 8.23644 4.67507 7.49425C4.62616 7.44493 4.56041 7.40507 4.5337 7.31384C4.63315 7.31384 4.71411 7.31384 4.79548 7.31384C9.76027 7.31384 10.7251 7.31384 15.6895 7.31384C16.3322 7.31384 16.8179 6.9489 16.9988 6.3374C17.0082 6.30575 17.0263 6.27658 17.0403 6.24658C17.0403 6.08219 17.0403 5.91781 17.0403 5.75342C16.7929 4.95164 16.2459 4.67384 15.4223 4.67671C10.5397 4.69479 9.65671 4.68575 4.77411 4.68575C4.69603 4.68575 4.61795 4.68575 4.53986 4.68575C4.52877 4.66438 4.51767 4.6426 4.50658 4.62123C4.56699 4.57767 4.63479 4.5411 4.68699 4.48932C5.42466 3.75493 6.16603 3.02425 6.89466 2.28082C7.62534 1.53534 7.29411 0.326301 6.29753 0.0616438C6.19849 0.0353425 6.09041 0.0579452 5.99877 0L6 0Z" fill="#FFD339" />
</svg>