<svg width="16" height="14" viewBox="0 0 16 14" fill="none" xmlns="http://www.w3.org/2000/svg">
    <path fill-rule="evenodd" clip-rule="evenodd" d="M7.29426 2.17117C7.43116 2.03455 7.55964 1.89646 7.60938 1.70312V1.49219C7.54075 1.3067 7.44646 1.14212 7.25418 1.05787C7.22326 1.04431 7.1921 1.03132 7.16093 1.01832C7.14634 1.01223 7.13175 1.00614 7.11719 1H6.88281C6.69161 1.06209 6.55288 1.19509 6.41446 1.33373C4.72457 3.0258 3.03325 4.71646 1.3405 6.40567C1.1992 6.5467 1.06237 6.68718 1 6.88281V7.11719C1.06138 7.31345 1.19976 7.45291 1.34083 7.59372C3.03346 9.28314 4.72483 10.9739 6.41486 12.6659C6.55316 12.8043 6.69126 12.9383 6.88281 13H7.11719C7.36811 12.9228 7.53116 12.7577 7.60938 12.5078V12.2969C7.55997 12.1034 7.43155 11.9653 7.29463 11.8286C6.61972 11.1551 5.94528 10.4811 5.27083 9.80717C4.3655 8.90248 3.46018 7.9978 2.55374 7.09424C2.47827 7.01901 2.47804 6.98118 2.55362 6.9058C3.46502 5.99722 4.37528 5.0875 5.28554 4.17778C5.95497 3.50876 6.62439 2.83974 7.29426 2.17117ZM15.2943 2.17117C15.4312 2.03455 15.5596 1.89646 15.6094 1.70312V1.49219C15.5407 1.3067 15.4465 1.14212 15.2542 1.05787C15.2233 1.04431 15.1921 1.03131 15.1609 1.01831C15.1463 1.01222 15.1317 1.00614 15.1172 1H14.8828C14.6916 1.06209 14.5529 1.19509 14.4145 1.33373C12.7246 3.0258 11.0332 4.71646 9.3405 6.40567C9.19919 6.5467 9.06237 6.68718 9 6.88281V7.11719C9.06138 7.31345 9.19976 7.45291 9.34083 7.59372C11.0335 9.28314 12.7248 10.9739 14.4149 12.6659C14.5532 12.8043 14.6913 12.9383 14.8828 13H15.1172C15.3681 12.9228 15.5312 12.7577 15.6094 12.5078V12.2969C15.56 12.1034 15.4316 11.9653 15.2946 11.8286C14.6198 11.1552 13.9454 10.4812 13.271 9.80732C12.3656 8.90258 11.4602 7.99785 10.5537 7.09424C10.4783 7.01901 10.478 6.98118 10.5536 6.9058C11.465 5.99724 12.3752 5.08755 13.2855 4.17786C13.9549 3.50882 14.6244 2.83977 15.2943 2.17117Z" fill="#ADABAB" />
    <path d="M7.60938 1.70312L7.70622 1.72804L7.70937 1.71578V1.70312H7.60938ZM7.29426 2.17117L7.22362 2.10039L7.22362 2.10039L7.29426 2.17117ZM7.60938 1.49219H7.70937V1.47428L7.70316 1.45749L7.60938 1.49219ZM7.25418 1.05787L7.21404 1.14946L7.21404 1.14946L7.25418 1.05787ZM7.16093 1.01832L7.12243 1.11061L7.12243 1.11061L7.16093 1.01832ZM7.11719 1L7.15605 0.907859L7.13741 0.9H7.11719V1ZM6.88281 1V0.9H6.86698L6.85193 0.904889L6.88281 1ZM6.41446 1.33373L6.48522 1.40439L6.48523 1.40438L6.41446 1.33373ZM1.3405 6.40567L1.26986 6.33489L1.26986 6.33489L1.3405 6.40567ZM1 6.88281L0.904724 6.85244L0.9 6.86726V6.88281H1ZM1 7.11719H0.9V7.13246L0.904559 7.14704L1 7.11719ZM1.34083 7.59372L1.27018 7.66449L1.27018 7.6645L1.34083 7.59372ZM6.41486 12.6659L6.34411 12.7366L6.34411 12.7366L6.41486 12.6659ZM6.88281 13L6.85217 13.0952L6.86711 13.1H6.88281V13ZM7.11719 13V13.1H7.13222L7.14659 13.0956L7.11719 13ZM7.60938 12.5078L7.70481 12.5377L7.70937 12.5231V12.5078H7.60938ZM7.60938 12.2969H7.70937V12.2843L7.70627 12.2721L7.60938 12.2969ZM7.29463 11.8286L7.36527 11.7578L7.36527 11.7578L7.29463 11.8286ZM5.27083 9.80717L5.20014 9.87791L5.27083 9.80717ZM2.55374 7.09424L2.48314 7.16506L2.48314 7.16506L2.55374 7.09424ZM2.55362 6.9058L2.48302 6.83498L2.48301 6.835L2.55362 6.9058ZM5.28554 4.17778L5.35623 4.24852L5.28554 4.17778ZM15.6094 1.70312L15.7062 1.72804L15.7094 1.71578V1.70312H15.6094ZM15.2943 2.17117L15.2236 2.10039L15.2236 2.10039L15.2943 2.17117ZM15.6094 1.49219H15.7094V1.47428L15.7032 1.45749L15.6094 1.49219ZM15.2542 1.05787L15.214 1.14946L15.214 1.14946L15.2542 1.05787ZM15.1609 1.01831L15.1994 0.926016L15.1994 0.926016L15.1609 1.01831ZM15.1172 1L15.156 0.907859L15.1374 0.9H15.1172V1ZM14.8828 1V0.9H14.867L14.8519 0.904889L14.8828 1ZM14.4145 1.33373L14.4852 1.40439L14.4852 1.40438L14.4145 1.33373ZM9.3405 6.40567L9.26986 6.33489L9.26986 6.33489L9.3405 6.40567ZM9 6.88281L8.90472 6.85244L8.9 6.86726V6.88281H9ZM9 7.11719H8.9V7.13246L8.90456 7.14704L9 7.11719ZM9.34083 7.59372L9.27018 7.66449L9.27018 7.6645L9.34083 7.59372ZM14.4149 12.6659L14.3441 12.7366L14.3441 12.7366L14.4149 12.6659ZM14.8828 13L14.8522 13.0952L14.8671 13.1H14.8828V13ZM15.1172 13V13.1H15.1322L15.1466 13.0956L15.1172 13ZM15.6094 12.5078L15.7048 12.5377L15.7094 12.5231V12.5078H15.6094ZM15.6094 12.2969H15.7094V12.2843L15.7063 12.2721L15.6094 12.2969ZM15.2946 11.8286L15.3653 11.7578L15.3653 11.7578L15.2946 11.8286ZM13.271 9.80732L13.2003 9.87806L13.271 9.80732ZM10.5537 7.09424L10.4831 7.16506L10.4831 7.16506L10.5537 7.09424ZM10.5536 6.9058L10.483 6.83498L10.483 6.835L10.5536 6.9058ZM13.2855 4.17786L13.3562 4.24859L13.2855 4.17786ZM7.51253 1.67821C7.47034 1.84223 7.3611 1.96319 7.22362 2.10039L7.3649 2.24196C7.50122 2.10591 7.64895 1.95069 7.70622 1.72804L7.51253 1.67821ZM7.50938 1.49219V1.70312H7.70937V1.49219H7.50938ZM7.21404 1.14946C7.36856 1.21717 7.45001 1.34963 7.51559 1.52689L7.70316 1.45749C7.63149 1.26377 7.52436 1.06708 7.29432 0.966275L7.21404 1.14946ZM7.12243 1.11061C7.15373 1.12366 7.18407 1.13632 7.21404 1.14946L7.29432 0.966279C7.26245 0.952306 7.23046 0.938966 7.19943 0.926024L7.12243 1.11061ZM7.07833 1.09214C7.0931 1.09837 7.10787 1.10453 7.12243 1.11061L7.19943 0.926024C7.18481 0.919925 7.1704 0.913914 7.15605 0.907859L7.07833 1.09214ZM6.88281 1.1H7.11719V0.9H6.88281V1.1ZM6.48523 1.40438C6.6249 1.2645 6.74824 1.14884 6.9137 1.09511L6.85193 0.904889C6.63497 0.975336 6.48087 1.12569 6.3437 1.26307L6.48523 1.40438ZM1.41114 6.47646C3.10393 4.78721 4.79529 3.0965 6.48522 1.40439L6.3437 1.26306C4.65385 2.95509 2.96257 4.64572 1.26986 6.33489L1.41114 6.47646ZM1.09528 6.91319C1.14923 6.74394 1.26802 6.61928 1.41114 6.47645L1.26986 6.33489C1.13037 6.47411 0.975504 6.63042 0.904724 6.85244L1.09528 6.91319ZM1.1 7.11719V6.88281H0.9V7.11719H1.1ZM1.41147 7.52294C1.2679 7.37963 1.14836 7.25653 1.09544 7.08734L0.904559 7.14704C0.974409 7.37037 1.13162 7.52618 1.27018 7.66449L1.41147 7.52294ZM6.48561 12.5952C4.79554 10.9031 3.10414 9.2124 1.41147 7.52294L1.27018 7.6645C2.96278 9.35388 4.65411 11.0446 6.34411 12.7366L6.48561 12.5952ZM6.91346 12.9048C6.74803 12.8516 6.62561 12.7354 6.48561 12.5952L6.34411 12.7366C6.48072 12.8733 6.63449 13.0251 6.85217 13.0952L6.91346 12.9048ZM7.11719 12.9H6.88281V13.1H7.11719V12.9ZM7.51394 12.4779C7.44539 12.697 7.30665 12.8371 7.08778 12.9044L7.14659 13.0956C7.42957 13.0085 7.61694 12.8185 7.70481 12.5377L7.51394 12.4779ZM7.50938 12.2969V12.5078H7.70937V12.2969H7.50938ZM7.224 11.8994C7.36148 12.0366 7.47059 12.1576 7.51248 12.3216L7.70627 12.2721C7.64935 12.0492 7.50163 11.8939 7.36527 11.7578L7.224 11.8994ZM5.20014 9.87791C5.87459 10.5519 6.54906 11.2259 7.224 11.8994L7.36527 11.7578C6.69039 11.0844 6.01597 10.4104 5.34152 9.73644L5.20014 9.87791ZM2.48314 7.16506C3.38953 8.06857 4.29481 8.97321 5.20014 9.87791L5.34152 9.73644C4.43619 8.83176 3.53082 7.92703 2.62434 7.02342L2.48314 7.16506ZM2.48301 6.835C2.44566 6.87224 2.39692 6.92684 2.39704 7.00023C2.39715 7.0735 2.44593 7.12797 2.48314 7.16506L2.62434 7.02342C2.60762 7.00675 2.59977 6.99668 2.59633 6.9911C2.59349 6.98651 2.59702 6.99041 2.59704 6.99992C2.59705 7.00945 2.59352 7.0134 2.59631 7.00887C2.59971 7.00335 2.60751 6.99329 2.62424 6.97661L2.48301 6.835ZM5.21485 4.10705C4.30459 5.01678 3.39437 5.92645 2.48302 6.83498L2.62423 6.97662C3.53568 6.06798 4.44598 5.15822 5.35623 4.24852L5.21485 4.10705ZM7.22362 2.10039C6.55372 2.76899 5.88427 3.43804 5.21485 4.10705L5.35623 4.24852C6.02566 3.57949 6.69506 2.91049 7.3649 2.24195L7.22362 2.10039ZM15.5125 1.67821C15.4703 1.84223 15.3611 1.96319 15.2236 2.10039L15.3649 2.24196C15.5012 2.10591 15.6489 1.95069 15.7062 1.72804L15.5125 1.67821ZM15.5094 1.49219V1.70312H15.7094V1.49219H15.5094ZM15.214 1.14946C15.3686 1.21717 15.45 1.34963 15.5156 1.52689L15.7032 1.45749C15.6315 1.26377 15.5244 1.06708 15.2943 0.966275L15.214 1.14946ZM15.1224 1.1106C15.1537 1.12366 15.1841 1.13632 15.214 1.14946L15.2943 0.966279C15.2624 0.952304 15.2304 0.938961 15.1994 0.926016L15.1224 1.1106ZM15.0783 1.09214C15.0931 1.09837 15.1079 1.10453 15.1224 1.1106L15.1994 0.926016C15.1848 0.91992 15.1704 0.913911 15.156 0.907859L15.0783 1.09214ZM14.8828 1.1H15.1172V0.9H14.8828V1.1ZM14.4852 1.40438C14.6249 1.2645 14.7482 1.14884 14.9137 1.09511L14.8519 0.904889C14.635 0.975336 14.4809 1.12569 14.3437 1.26307L14.4852 1.40438ZM9.41114 6.47646C11.1039 4.78721 12.7953 3.0965 14.4852 1.40439L14.3437 1.26306C12.6539 2.95509 10.9626 4.64572 9.26986 6.33489L9.41114 6.47646ZM9.09528 6.91319C9.14923 6.74394 9.26802 6.61928 9.41114 6.47645L9.26986 6.33489C9.13037 6.47411 8.9755 6.63042 8.90472 6.85244L9.09528 6.91319ZM9.1 7.11719V6.88281H8.9V7.11719H9.1ZM9.41147 7.52294C9.2679 7.37963 9.14836 7.25653 9.09544 7.08734L8.90456 7.14704C8.97441 7.37037 9.13162 7.52618 9.27018 7.66449L9.41147 7.52294ZM14.4856 12.5952C12.7955 10.9031 11.1041 9.2124 9.41147 7.52294L9.27018 7.6645C10.9628 9.35388 12.6541 11.0446 14.3441 12.7366L14.4856 12.5952ZM14.9135 12.9048C14.748 12.8516 14.6256 12.7354 14.4856 12.5952L14.3441 12.7366C14.4807 12.8733 14.6345 13.0251 14.8522 13.0952L14.9135 12.9048ZM15.1172 12.9H14.8828V13.1H15.1172V12.9ZM15.5139 12.4779C15.4454 12.697 15.3066 12.8371 15.0878 12.9044L15.1466 13.0956C15.4296 13.0085 15.6169 12.8185 15.7048 12.5377L15.5139 12.4779ZM15.5094 12.2969V12.5078H15.7094V12.2969H15.5094ZM15.224 11.8994C15.3615 12.0366 15.4706 12.1576 15.5125 12.3216L15.7063 12.2721C15.6493 12.0492 15.5016 11.8939 15.3653 11.7578L15.224 11.8994ZM13.2003 9.87806C13.8747 10.552 14.5491 11.2259 15.224 11.8994L15.3653 11.7578C14.6904 11.0844 14.0161 10.4105 13.3417 9.73659L13.2003 9.87806ZM10.4831 7.16506C11.3896 8.06862 12.2949 8.97331 13.2003 9.87806L13.3417 9.73659C12.4363 8.83186 11.5309 7.92708 10.6243 7.02342L10.4831 7.16506ZM10.483 6.835C10.4457 6.87224 10.3969 6.92684 10.397 7.00023C10.3972 7.0735 10.4459 7.12797 10.4831 7.16506L10.6243 7.02342C10.6076 7.00675 10.5998 6.99667 10.5963 6.9911C10.5935 6.98651 10.597 6.99041 10.597 6.99992C10.5971 7.00945 10.5935 7.0134 10.5963 7.00887C10.5997 7.00335 10.6075 6.99329 10.6242 6.97661L10.483 6.835ZM13.2148 4.10713C12.3045 5.01683 11.3943 5.92647 10.483 6.83498L10.6242 6.97662C11.5356 6.06801 12.4459 5.15828 13.3562 4.24859L13.2148 4.10713ZM15.2236 2.10039C14.5537 2.76902 13.8842 3.43809 13.2148 4.10713L13.3562 4.24859C14.0256 3.57954 14.695 2.91052 15.3649 2.24195L15.2236 2.10039Z" fill="#ADABAB" />
</svg>