<svg width="16" height="14" viewBox="0 0 16 14" fill="none" xmlns="http://www.w3.org/2000/svg">
    <path fill-rule="evenodd" clip-rule="evenodd" d="M8.70574 2.17117C8.56884 2.03455 8.44036 1.89646 8.39062 1.70312V1.49219C8.45925 1.3067 8.55354 1.14212 8.74582 1.05787C8.77674 1.04431 8.8079 1.03132 8.83907 1.01832C8.85366 1.01223 8.86825 1.00614 8.88281 1H9.11719C9.30839 1.06209 9.44712 1.19509 9.58554 1.33373C11.2754 3.0258 12.9668 4.71646 14.6595 6.40567C14.8008 6.5467 14.9376 6.68718 15 6.88281V7.11719C14.9386 7.31345 14.8002 7.45291 14.6592 7.59372C12.9665 9.28314 11.2752 10.9739 9.58514 12.6659C9.44684 12.8043 9.30874 12.9383 9.11719 13H8.88281C8.63189 12.9228 8.46884 12.7577 8.39062 12.5078V12.2969C8.44003 12.1034 8.56845 11.9653 8.70537 11.8286C9.38028 11.1551 10.0547 10.4811 10.7292 9.80717C11.6345 8.90248 12.5398 7.9978 13.4463 7.09424C13.5217 7.01901 13.522 6.98118 13.4464 6.9058C12.535 5.99722 11.6247 5.0875 10.7145 4.17778C10.045 3.50876 9.37561 2.83974 8.70574 2.17117ZM0.705742 2.17117C0.568844 2.03455 0.440359 1.89646 0.390625 1.70312V1.49219C0.45925 1.3067 0.553539 1.14212 0.745821 1.05787C0.776749 1.04431 0.807915 1.03131 0.839084 1.01831C0.853667 1.01222 0.868252 1.00614 0.882812 1H1.11719C1.30839 1.06209 1.44712 1.19509 1.58554 1.33373C3.27543 3.0258 4.96675 4.71646 6.6595 6.40567C6.80081 6.5467 6.93763 6.68718 7 6.88281V7.11719C6.93862 7.31345 6.80024 7.45291 6.65917 7.59372C4.96654 9.28314 3.27517 10.9739 1.58514 12.6659C1.44684 12.8043 1.30874 12.9383 1.11719 13H0.882812C0.63189 12.9228 0.468836 12.7577 0.390625 12.5078V12.2969C0.440031 12.1034 0.568445 11.9653 0.705367 11.8286C1.38023 11.1552 2.05462 10.4812 2.72902 9.80732C3.6344 8.90258 4.53977 7.99785 5.44626 7.09424C5.52173 7.01901 5.52196 6.98118 5.44637 6.9058C4.535 5.99724 3.62477 5.08755 2.71453 4.17786C2.04509 3.50882 1.37564 2.83977 0.705742 2.17117Z" fill="#ADABAB" />
    <path d="M8.39062 1.70312L8.29378 1.72804L8.29063 1.71578V1.70312H8.39062ZM8.70574 2.17117L8.77638 2.10039L8.77638 2.10039L8.70574 2.17117ZM8.39062 1.49219H8.29063V1.47428L8.29684 1.45749L8.39062 1.49219ZM8.74582 1.05787L8.78596 1.14946L8.78596 1.14946L8.74582 1.05787ZM8.83907 1.01832L8.87757 1.11061L8.87757 1.11061L8.83907 1.01832ZM8.88281 1L8.84395 0.907859L8.86259 0.9H8.88281V1ZM9.11719 1V0.9H9.13302L9.14807 0.904889L9.11719 1ZM9.58554 1.33373L9.51478 1.40439L9.51477 1.40438L9.58554 1.33373ZM14.6595 6.40567L14.7301 6.33489L14.7301 6.33489L14.6595 6.40567ZM15 6.88281L15.0953 6.85244L15.1 6.86726V6.88281H15ZM15 7.11719H15.1V7.13246L15.0954 7.14704L15 7.11719ZM14.6592 7.59372L14.7298 7.66449L14.7298 7.6645L14.6592 7.59372ZM9.58514 12.6659L9.65589 12.7366L9.65589 12.7366L9.58514 12.6659ZM9.11719 13L9.14783 13.0952L9.13289 13.1H9.11719V13ZM8.88281 13V13.1H8.86778L8.85341 13.0956L8.88281 13ZM8.39062 12.5078L8.29519 12.5377L8.29063 12.5231V12.5078H8.39062ZM8.39062 12.2969H8.29063V12.2843L8.29373 12.2721L8.39062 12.2969ZM8.70537 11.8286L8.63473 11.7578L8.63473 11.7578L8.70537 11.8286ZM10.7292 9.80717L10.7999 9.87791L10.7292 9.80717ZM13.4463 7.09424L13.5169 7.16506L13.5169 7.16506L13.4463 7.09424ZM13.4464 6.9058L13.517 6.83498L13.517 6.835L13.4464 6.9058ZM10.7145 4.17778L10.6438 4.24852L10.7145 4.17778ZM0.390625 1.70312L0.293778 1.72804L0.290625 1.71578V1.70312H0.390625ZM0.705742 2.17117L0.77638 2.10039L0.776383 2.10039L0.705742 2.17117ZM0.390625 1.49219H0.290625V1.47428L0.296838 1.45749L0.390625 1.49219ZM0.745821 1.05787L0.785965 1.14946L0.785956 1.14946L0.745821 1.05787ZM0.839084 1.01831L0.800584 0.926016L0.800585 0.926016L0.839084 1.01831ZM0.882812 1L0.843953 0.907859L0.862588 0.9H0.882812V1ZM1.11719 1V0.9H1.13302L1.14807 0.904889L1.11719 1ZM1.58554 1.33373L1.51478 1.40439L1.51477 1.40438L1.58554 1.33373ZM6.6595 6.40567L6.73014 6.33489L6.73014 6.33489L6.6595 6.40567ZM7 6.88281L7.09528 6.85244L7.1 6.86726V6.88281H7ZM7 7.11719H7.1V7.13246L7.09544 7.14704L7 7.11719ZM6.65917 7.59372L6.72982 7.66449L6.72982 7.6645L6.65917 7.59372ZM1.58514 12.6659L1.65589 12.7366L1.65589 12.7366L1.58514 12.6659ZM1.11719 13L1.14783 13.0952L1.13289 13.1H1.11719V13ZM0.882812 13V13.1H0.867777L0.853405 13.0956L0.882812 13ZM0.390625 12.5078L0.295189 12.5377L0.290625 12.5231V12.5078H0.390625ZM0.390625 12.2969H0.290625V12.2843L0.293735 12.2721L0.390625 12.2969ZM0.705367 11.8286L0.634729 11.7578L0.63473 11.7578L0.705367 11.8286ZM2.72902 9.80732L2.79971 9.87806L2.72902 9.80732ZM5.44626 7.09424L5.51686 7.16506L5.51686 7.16506L5.44626 7.09424ZM5.44637 6.9058L5.51698 6.83498L5.51699 6.835L5.44637 6.9058ZM2.71453 4.17786L2.64385 4.24859L2.71453 4.17786ZM8.48747 1.67821C8.52966 1.84223 8.6389 1.96319 8.77638 2.10039L8.6351 2.24196C8.49878 2.10591 8.35105 1.95069 8.29378 1.72804L8.48747 1.67821ZM8.49062 1.49219V1.70312H8.29063V1.49219H8.49062ZM8.78596 1.14946C8.63144 1.21717 8.54999 1.34963 8.48441 1.52689L8.29684 1.45749C8.36851 1.26377 8.47564 1.06708 8.70568 0.966275L8.78596 1.14946ZM8.87757 1.11061C8.84627 1.12366 8.81593 1.13632 8.78596 1.14946L8.70568 0.966279C8.73755 0.952306 8.76954 0.938966 8.80057 0.926024L8.87757 1.11061ZM8.92167 1.09214C8.9069 1.09837 8.89213 1.10453 8.87757 1.11061L8.80057 0.926024C8.81519 0.919925 8.8296 0.913914 8.84395 0.907859L8.92167 1.09214ZM9.11719 1.1H8.88281V0.9H9.11719V1.1ZM9.51477 1.40438C9.3751 1.2645 9.25176 1.14884 9.0863 1.09511L9.14807 0.904889C9.36503 0.975336 9.51913 1.12569 9.6563 1.26307L9.51477 1.40438ZM14.5889 6.47646C12.8961 4.78721 11.2047 3.0965 9.51478 1.40439L9.6563 1.26306C11.3461 2.95509 13.0374 4.64572 14.7301 6.33489L14.5889 6.47646ZM14.9047 6.91319C14.8508 6.74394 14.732 6.61928 14.5889 6.47645L14.7301 6.33489C14.8696 6.47411 15.0245 6.63042 15.0953 6.85244L14.9047 6.91319ZM14.9 7.11719V6.88281H15.1V7.11719H14.9ZM14.5885 7.52294C14.7321 7.37963 14.8516 7.25653 14.9046 7.08734L15.0954 7.14704C15.0256 7.37037 14.8684 7.52618 14.7298 7.66449L14.5885 7.52294ZM9.51439 12.5952C11.2045 10.9031 12.8959 9.2124 14.5885 7.52294L14.7298 7.6645C13.0372 9.35388 11.3459 11.0446 9.65589 12.7366L9.51439 12.5952ZM9.08654 12.9048C9.25197 12.8516 9.37439 12.7354 9.51439 12.5952L9.65589 12.7366C9.51928 12.8733 9.36551 13.0251 9.14783 13.0952L9.08654 12.9048ZM8.88281 12.9H9.11719V13.1H8.88281V12.9ZM8.48606 12.4779C8.55461 12.697 8.69335 12.8371 8.91222 12.9044L8.85341 13.0956C8.57043 13.0085 8.38306 12.8185 8.29519 12.5377L8.48606 12.4779ZM8.49062 12.2969V12.5078H8.29063V12.2969H8.49062ZM8.776 11.8994C8.63852 12.0366 8.52941 12.1576 8.48752 12.3216L8.29373 12.2721C8.35065 12.0492 8.49837 11.8939 8.63473 11.7578L8.776 11.8994ZM10.7999 9.87791C10.1254 10.5519 9.45094 11.2259 8.776 11.8994L8.63473 11.7578C9.30961 11.0844 9.98403 10.4104 10.6585 9.73644L10.7999 9.87791ZM13.5169 7.16506C12.6105 8.06857 11.7052 8.97321 10.7999 9.87791L10.6585 9.73644C11.5638 8.83176 12.4692 7.92703 13.3757 7.02342L13.5169 7.16506ZM13.517 6.835C13.5543 6.87224 13.6031 6.92684 13.603 7.00023C13.6028 7.0735 13.5541 7.12797 13.5169 7.16506L13.3757 7.02342C13.3924 7.00675 13.4002 6.99668 13.4037 6.9911C13.4065 6.98651 13.403 6.99041 13.403 6.99992C13.4029 7.00945 13.4065 7.0134 13.4037 7.00887C13.4003 7.00335 13.3925 6.99329 13.3758 6.97661L13.517 6.835ZM10.7851 4.10705C11.6954 5.01678 12.6056 5.92645 13.517 6.83498L13.3758 6.97662C12.4643 6.06798 11.554 5.15822 10.6438 4.24852L10.7851 4.10705ZM8.77638 2.10039C9.44628 2.76899 10.1157 3.43804 10.7851 4.10705L10.6438 4.24852C9.97434 3.57949 9.30494 2.91049 8.6351 2.24195L8.77638 2.10039ZM0.487472 1.67821C0.529665 1.84223 0.638904 1.96319 0.77638 2.10039L0.635104 2.24196C0.498784 2.10591 0.351053 1.95069 0.293778 1.72804L0.487472 1.67821ZM0.490625 1.49219V1.70312H0.290625V1.49219H0.490625ZM0.785956 1.14946C0.631436 1.21717 0.549993 1.34963 0.484412 1.52689L0.296838 1.45749C0.368508 1.26377 0.475642 1.06708 0.705686 0.966275L0.785956 1.14946ZM0.877584 1.1106C0.846277 1.12366 0.815937 1.13632 0.785965 1.14946L0.705677 0.966279C0.73756 0.952304 0.769552 0.938961 0.800584 0.926016L0.877584 1.1106ZM0.921672 1.09214C0.906901 1.09837 0.892136 1.10453 0.877583 1.1106L0.800585 0.926016C0.815199 0.91992 0.829602 0.913911 0.843953 0.907859L0.921672 1.09214ZM1.11719 1.1H0.882812V0.9H1.11719V1.1ZM1.51477 1.40438C1.3751 1.2645 1.25175 1.14884 1.0863 1.09511L1.14807 0.904889C1.36503 0.975336 1.51913 1.12569 1.6563 1.26307L1.51477 1.40438ZM6.58886 6.47646C4.89607 4.78721 3.20471 3.0965 1.51478 1.40439L1.65629 1.26306C3.34615 2.95509 5.03743 4.64572 6.73014 6.33489L6.58886 6.47646ZM6.90472 6.91319C6.85077 6.74394 6.73198 6.61928 6.58886 6.47645L6.73014 6.33489C6.86963 6.47411 7.0245 6.63042 7.09528 6.85244L6.90472 6.91319ZM6.9 7.11719V6.88281H7.1V7.11719H6.9ZM6.58853 7.52294C6.7321 7.37963 6.85164 7.25653 6.90456 7.08734L7.09544 7.14704C7.02559 7.37037 6.86838 7.52618 6.72982 7.66449L6.58853 7.52294ZM1.51439 12.5952C3.20446 10.9031 4.89586 9.2124 6.58853 7.52294L6.72982 7.6645C5.03722 9.35388 3.34589 11.0446 1.65589 12.7366L1.51439 12.5952ZM1.08654 12.9048C1.25198 12.8516 1.37439 12.7354 1.51439 12.5952L1.65589 12.7366C1.51928 12.8733 1.36551 13.0251 1.14783 13.0952L1.08654 12.9048ZM0.882812 12.9H1.11719V13.1H0.882812V12.9ZM0.486061 12.4779C0.554609 12.697 0.693354 12.8371 0.91222 12.9044L0.853405 13.0956C0.570427 13.0085 0.383062 12.8185 0.295189 12.5377L0.486061 12.4779ZM0.490625 12.2969V12.5078H0.290625V12.2969H0.490625ZM0.776005 11.8994C0.638525 12.0366 0.529409 12.1576 0.487515 12.3216L0.293735 12.2721C0.350653 12.0492 0.498365 11.8939 0.634729 11.7578L0.776005 11.8994ZM2.79971 9.87806C2.12531 10.552 1.45089 11.2259 0.776004 11.8994L0.63473 11.7578C1.30956 11.0844 1.98393 10.4105 2.65833 9.73659L2.79971 9.87806ZM5.51686 7.16506C4.61042 8.06862 3.70509 8.97331 2.79971 9.87806L2.65833 9.73659C3.56371 8.83186 4.46912 7.92708 5.37566 7.02342L5.51686 7.16506ZM5.51699 6.835C5.55434 6.87224 5.60308 6.92684 5.60296 7.00023C5.60285 7.0735 5.55407 7.12797 5.51686 7.16506L5.37566 7.02342C5.39238 7.00675 5.40023 6.99667 5.40367 6.9911C5.40651 6.98651 5.40298 6.99041 5.40296 6.99992C5.40295 7.00945 5.40648 7.0134 5.40369 7.00887C5.40029 7.00335 5.39249 6.99329 5.37576 6.97661L5.51699 6.835ZM2.78522 4.10713C3.69547 5.01683 4.60566 5.92647 5.51698 6.83498L5.37577 6.97662C4.46435 6.06801 3.55407 5.15828 2.64385 4.24859L2.78522 4.10713ZM0.776383 2.10039C1.44631 2.76902 2.11578 3.43809 2.78522 4.10713L2.64385 4.24859C1.97439 3.57954 1.30497 2.91052 0.6351 2.24195L0.776383 2.10039Z" fill="#ADABAB" />
</svg>