<svg width="15" height="15" viewBox="0 0 15 15" fill="none" xmlns="http://www.w3.org/2000/svg">
<g clip-path="url(#clip0_4332_16559)">
<path d="M7.49987 0.00142043C8.73617 0.00142043 9.972 -0.00233039 11.2083 0.00235813C13.0778 0.00939092 14.5795 1.24716 14.9383 3.07006C14.9848 3.30636 14.9975 3.54641 14.9975 3.78694C14.9975 6.26529 15.0036 8.74365 14.9952 11.222C14.9891 13.0838 13.7481 14.579 11.9331 14.9386C11.6907 14.9864 11.4455 14.9991 11.1989 14.9986C8.73241 14.9986 6.26591 15.0019 3.79942 14.9972C1.92759 14.9939 0.42684 13.7604 0.0623379 11.9379C0.0163055 11.7073 0.00174422 11.4738 0.00174422 11.2389C0.00174422 8.7488 -0.00436213 6.25873 0.00362309 3.76865C0.00972944 1.91809 1.24274 0.432765 3.05726 0.063309C3.31702 0.0103286 3.58006 0.000951577 3.84404 0.00142043C5.06249 0.00142043 6.28141 0.00142043 7.49987 0.00142043ZM7.48155 13.5044C8.71785 13.5044 9.95415 13.5067 11.1904 13.5039C12.516 13.5006 13.5001 12.5188 13.5024 11.192C13.5062 8.73099 13.5062 6.26998 13.5024 3.80897C13.5005 2.47978 12.5183 1.49847 11.1914 1.49706C8.73053 1.49425 6.26967 1.49425 3.80882 1.49706C2.48092 1.49847 1.49874 2.48024 1.49733 3.8085C1.49404 6.26951 1.49639 8.73052 1.49639 11.1915C1.49639 11.4091 1.51847 11.6243 1.57624 11.8348C1.84821 12.833 2.72799 13.5002 3.79097 13.5039C5.02116 13.5081 6.25182 13.5048 7.48202 13.5048L7.48155 13.5044Z" fill="#ADABAB"/>
<path d="M6.75269 7.50063C6.75269 6.50479 6.74893 5.50895 6.75457 4.5131C6.75739 4.00159 7.19141 3.66026 7.6771 3.77232C7.98664 3.84358 8.21868 4.11458 8.24264 4.43293C8.24546 4.47372 8.2464 4.51498 8.2464 4.55577C8.2464 6.51839 8.24734 8.481 8.2464 10.4432C8.2464 10.8661 8.01811 11.161 7.64375 11.2336C7.19235 11.3213 6.77853 11.0001 6.75551 10.5407C6.7494 10.4178 6.75269 10.2945 6.75269 10.1717C6.75269 9.28133 6.75269 8.39098 6.75269 7.50016V7.50063Z" fill="#ADABAB"/>
<path d="M5.24954 8.634C5.24954 9.23741 5.25048 9.84083 5.24954 10.4442C5.2486 10.9107 4.93529 11.2493 4.50456 11.253C4.07853 11.2568 3.74926 10.9154 3.74832 10.4536C3.74503 9.23507 3.74503 8.01652 3.74832 6.79844C3.74972 6.33568 4.07759 5.99577 4.50409 5.99905C4.93483 6.00233 5.2486 6.34037 5.24954 6.80688C5.25095 7.41592 5.24954 8.02543 5.24954 8.63447V8.634Z" fill="#ADABAB"/>
<path d="M9.75049 9.74128C9.75049 9.49514 9.7472 9.24946 9.75143 9.00331C9.75847 8.59306 10.0563 8.27893 10.4612 8.25033C10.8431 8.22314 11.2076 8.50726 11.2371 8.9086C11.278 9.46841 11.2785 10.0329 11.2371 10.5932C11.2076 10.9941 10.8416 11.2791 10.4607 11.251C10.0558 11.2215 9.758 10.9073 9.75143 10.4971C9.7472 10.2453 9.75049 9.99353 9.75049 9.74175V9.74128Z" fill="#ADABAB"/>
</g>
<defs>
<clipPath id="clip0_4332_16559">
<rect width="15" height="15" fill="white"/>
</clipPath>
</defs>
</svg>
