<svg width="19" height="21" viewBox="0 0 19 21" fill="none" xmlns="http://www.w3.org/2000/svg">
    <g clip-path="url(#clip0_3872_17568)">
        <path d="M6.14453 10.2294C5.52075 10.811 0 11.8005 0 11.8005C0 11.8005 5.52075 12.79 6.14453 13.3717C6.76113 13.9534 7.82226 21.0068 7.82226 21.0068C7.82226 21.0068 8.8834 13.9467 9.50717 13.3717C10.1309 12.79 15.6517 11.8005 15.6517 11.8005C15.6517 11.8005 10.1309 10.811 9.50717 10.2294C8.8834 9.64772 7.82226 2.59424 7.82226 2.59424C7.82226 2.59424 6.76113 9.65441 6.14453 10.2294Z" fill="white" />
        <path d="M14.9277 3.26934C14.6624 3.51671 12.2964 3.93792 12.2964 3.93792C12.2964 3.93792 14.6624 4.35912 14.9277 4.61318C15.193 4.86055 15.6447 7.88252 15.6447 7.88252C15.6447 7.88252 16.1036 4.86055 16.3688 4.61318C16.6341 4.36581 19.0002 3.93792 19.0002 3.93792C19.0002 3.93792 16.6341 3.51671 16.3688 3.26934C16.1036 3.02197 15.6447 0 15.6447 0C15.6447 0 15.193 3.02197 14.9277 3.26934Z" fill="white" />
    </g>
    <defs>
        <clipPath id="clip0_3872_17568">
            <rect width="19" height="21" fill="white" />
        </clipPath>
    </defs>
</svg>