<svg width="17" height="20" viewBox="0 0 17 20" fill="none" xmlns="http://www.w3.org/2000/svg">
    <g clip-path="url(#clip0_3872_15682)">
        <path d="M16.9485 4.15526C16.7752 2.94831 16.1746 2.08241 14.9641 1.6994C14.3269 1.49785 14.3171 1.49489 14.3501 0.806309C14.3665 0.464676 14.3132 0.17683 13.985 -0.000488281H3.06799C2.76784 0.15437 2.65111 0.402319 2.68625 0.730653C2.69548 0.817244 2.67969 0.90738 2.69458 0.992788C2.74789 1.30103 2.64754 1.44288 2.31284 1.51883C1.31499 1.74491 0.578293 2.31026 0.244189 3.30324C-0.000582019 4.03143 -0.0577549 4.79006 0.0565909 5.54159C0.371339 7.61266 2.01774 9.34211 4.07447 9.80904C4.20192 9.83801 4.31716 9.86017 4.39726 9.99671C4.81117 10.7024 5.35074 11.3127 5.95522 11.858C6.41529 12.2732 6.71574 12.7224 6.59068 13.3669C6.54303 13.6122 6.65261 13.6826 6.90007 13.6799C7.99141 13.6672 9.08306 13.6648 10.1744 13.6811C10.4481 13.6852 10.5353 13.5898 10.49 13.3457C10.3805 12.7549 10.6303 12.3338 11.071 11.954C11.6124 11.4877 12.1043 10.9643 12.4851 10.3564C12.6516 10.0907 12.8422 9.94499 13.1605 9.86253C15.6749 9.2106 17.3168 6.71957 16.9488 4.15496L16.9485 4.15526ZM1.82151 7.09342C1.10119 6.10191 0.91746 5.00993 1.19618 3.8284C1.35817 3.14159 1.80245 2.74617 2.46798 2.54669C2.70322 2.47605 2.73538 2.54344 2.7455 2.75769C2.81905 4.29622 2.9596 5.82796 3.33599 7.32777C3.43843 7.7362 3.56677 8.13841 3.69809 8.59471C2.89052 8.26194 2.29795 7.74949 1.82151 7.09342ZM10.3024 6.45034L10.6821 8.64791L8.69357 7.6103L6.70502 8.64791L7.08469 6.45034L5.47581 4.89408L7.699 4.57343L8.69327 2.57387L9.68754 4.57343L11.9107 4.89408L10.3019 6.45034H10.3024ZM13.4937 8.64081C13.4651 8.65352 13.4312 8.6547 13.3415 8.67362C13.7227 7.57129 13.9398 6.48374 14.0827 5.38023C14.1896 4.55688 14.2536 3.72969 14.2891 2.90103C14.301 2.61998 14.3897 2.61407 14.6235 2.68559C15.4048 2.92496 15.7607 3.48411 15.8884 4.24392C16.188 6.02714 15.1687 7.90642 13.494 8.64052L13.4937 8.64081Z" fill="white" />
        <path d="M8.52761 17.3646C10.093 17.3646 11.6584 17.3691 13.2235 17.3599C13.471 17.3584 13.5767 17.409 13.566 17.6829C13.5442 18.24 13.5648 18.7988 13.5573 19.3565C13.5511 19.8084 13.3668 19.9963 12.9091 19.9969C9.9879 20.001 7.06643 20.0008 4.14525 19.9972C3.66822 19.9966 3.48389 19.8069 3.47972 19.3376C3.47496 18.7796 3.49253 18.2211 3.47228 17.664C3.46275 17.4025 3.56667 17.359 3.79864 17.3602C5.37506 17.3685 6.95149 17.3643 8.52791 17.3643L8.52761 17.3646Z" fill="white" />
        <path d="M8.49226 14.7311C9.54996 14.7311 10.6077 14.7367 11.6654 14.7266C11.8958 14.7243 11.9765 14.7955 11.9655 15.0245C11.9494 15.3626 11.9533 15.7025 11.9643 16.0411C11.9706 16.2318 11.9185 16.3113 11.7079 16.3104C9.58152 16.3039 7.45511 16.3045 5.32869 16.3098C5.13037 16.3104 5.05474 16.2518 5.06248 16.0485C5.07618 15.6992 5.07886 15.3481 5.06188 14.9991C5.05087 14.7718 5.14705 14.7257 5.35222 14.7272C6.3989 14.7346 7.44558 14.7308 8.49226 14.7308V14.7311Z" fill="white" />
    </g>
    <defs>
        <clipPath id="clip0_3872_15682">
            <rect width="17" height="20" fill="white" />
        </clipPath>
    </defs>
</svg>