<svg width="48" height="50" viewBox="0 0 48 50" fill="none" xmlns="http://www.w3.org/2000/svg">
    <mask id="mask0_3674_19586" style="mask-type:luminance" maskUnits="userSpaceOnUse" x="0" y="0" width="44" height="49">
        <path fill-rule="evenodd" clip-rule="evenodd" d="M0 0H43.0234V48.3096H0V0Z" fill="white" />
    </mask>
    <g mask="url(#mask0_3674_19586)">
        <path fill-rule="evenodd" clip-rule="evenodd" d="M17.1071 22.4317C15.153 22.4317 13.1988 22.4228 11.2448 22.4349C10.0316 22.4426 9.11491 23.2245 8.94172 24.36C8.7711 25.4786 9.39603 26.5019 10.4658 26.8538C10.8177 26.9695 11.1823 26.9795 11.5481 26.9795C15.2339 26.979 18.9198 26.9801 22.6056 26.9773C22.8589 26.9771 23.1148 26.9672 23.3651 26.9318C24.2673 26.8043 24.8749 26.2874 25.1757 25.4439C25.7068 23.9544 24.6095 22.4533 22.9694 22.4366C21.0154 22.4166 19.0612 22.4319 17.1071 22.4317ZM21.5585 17.2581C24.8794 17.2581 28.2003 17.2593 31.5212 17.2557C31.79 17.2553 32.0617 17.2401 32.3269 17.1985C33.2222 17.0578 33.9489 16.3801 34.1425 15.5257C34.3532 14.5958 33.9998 13.6664 33.242 13.1323C32.7506 12.7859 32.1965 12.7059 31.6142 12.7061C24.893 12.7082 18.1718 12.7074 11.4506 12.7077C11.3235 12.7077 11.196 12.7044 11.0694 12.7138C9.49505 12.8313 8.49591 14.2646 8.97947 15.7096C9.30599 16.6855 10.1698 17.2552 11.3575 17.2566C14.7579 17.2605 18.1582 17.2579 21.5585 17.2581ZM0 26.4345C0 24.9081 0 23.3817 0 21.8553C0.024374 21.5727 0.0671957 21.2902 0.07035 21.0073C0.108393 17.5419 0.290003 14.0858 0.659245 10.6385C1.18276 5.75157 4.93635 1.63733 9.7624 0.787207C12.6121 0.285199 15.4974 0.068796 18.3898 0.0300844C23.0446 -0.0324277 27.6978 -0.0573752 32.328 0.584377C35.585 1.03582 38.2652 2.46748 40.2487 5.1036C41.5835 6.87764 42.3311 8.86838 42.4765 11.1201C42.6064 13.1316 42.8085 15.1404 42.9022 17.1551C43.0531 20.3954 43.0217 23.6385 43.0086 26.8809C43.008 27.0112 43.0708 27.1633 42.9417 27.276C36.0981 23.1259 28.9819 25.8737 25.6739 29.7149C23.7362 31.9649 22.5667 34.5466 22.3404 37.5004C22.0239 41.6329 23.3742 45.1999 26.3062 48.2329C26.1419 48.249 26.0686 48.2615 25.9952 48.2625C20.9283 48.3293 15.8649 48.4292 10.8193 47.7312C7.49591 47.2715 4.82089 45.7919 2.79746 43.1253C1.21975 41.0461 0.670906 38.634 0.482223 36.0889C0.2576 33.0611 0.0882243 30.0324 0.0638503 26.9961C0.0623209 26.8087 0.0221755 26.6216 0 26.4345Z" fill="url(#paint0_linear_3674_19586)" />
    </g>
    <mask id="mask1_3674_19586" style="mask-type:luminance" maskUnits="userSpaceOnUse" x="24" y="27" width="24" height="23">
        <path fill-rule="evenodd" clip-rule="evenodd" d="M24.3567 27.2461H47.092V50H24.3567V27.2461Z" fill="white" />
    </mask>
    <g mask="url(#mask1_3674_19586)">
        <path fill-rule="evenodd" clip-rule="evenodd" d="M36.5642 47.706H34.7619C34.5459 47.6546 34.3318 47.608 34.1235 47.5627L34.117 47.5613L34.1159 47.5611C33.4815 47.423 32.8823 47.2927 32.3467 47.0589C28.955 45.5788 27.1113 43.1398 26.7104 39.6025C26.4364 37.186 27.1173 34.8183 28.6277 32.9353C30.1344 31.0568 32.2935 29.8713 34.7072 29.5974C39.596 29.0426 44.0886 32.579 44.7217 37.4812C45.0308 39.8733 44.389 42.2414 42.9145 44.1495C41.4376 46.0606 39.2921 47.2955 36.872 47.6268C36.7537 47.643 36.6501 47.6734 36.5642 47.706ZM34.4857 50H37.0621L37.2843 49.9015C37.3012 49.8939 37.3182 49.886 37.3352 49.8778C40.2922 49.4344 42.9135 47.9023 44.7297 45.5522C46.5794 43.1587 47.3845 40.1879 46.9969 37.1873C46.2041 31.0501 40.5764 26.6227 34.4484 27.318C31.429 27.6607 28.7263 29.1459 26.8383 31.4999C24.9427 33.8633 24.0877 36.8325 24.4309 39.8608C24.6778 42.0393 25.4094 43.9401 26.6053 45.51C27.7761 47.0469 29.3991 48.2755 31.4292 49.1615C32.173 49.4861 32.9133 49.6471 33.6293 49.8028L33.6372 49.8046C33.8848 49.8585 34.1187 49.9094 34.3503 49.9666L34.4857 50ZM33.4859 37.9205C33.4866 37.6033 33.4872 37.2862 33.4872 36.969C33.4872 36.6572 33.4867 36.3453 33.4861 36.0334C33.4848 35.3122 33.4835 34.5909 33.4892 33.8697C33.4957 33.0197 33.9494 32.5228 34.6932 32.527C35.4157 32.5311 35.8955 33.0604 35.8996 33.8878C35.9005 34.0728 35.9015 34.2578 35.9025 34.4428C35.9097 35.7677 35.9169 37.0929 35.8909 38.4173C35.8816 38.8922 35.975 39.0801 36.4973 39.0482C37.3047 38.9989 38.1179 39.0196 38.9277 39.0432C39.5489 39.0613 40.025 39.4816 40.1096 40.024C40.202 40.6165 39.9355 41.1191 39.4176 41.3531C39.2209 41.4419 39.0158 41.4449 38.8108 41.4455C38.6358 41.4459 38.4608 41.4464 38.2858 41.4469C37.1259 41.45 35.966 41.453 34.8061 41.4446C33.9333 41.4383 33.4977 40.9966 33.4895 40.116C33.4827 39.3842 33.4843 38.6523 33.4859 37.9205Z" fill="#FFD339" />
    </g>
    <defs>
        <linearGradient id="paint0_linear_3674_19586" x1="0.671195" y1="0" x2="0.671195" y2="46.8022" gradientUnits="userSpaceOnUse">
            <stop stop-color="#424242" />
            <stop offset="1" stop-color="#2A2A2A" />
        </linearGradient>
    </defs>
</svg>