<svg width="31" height="32" viewBox="0 0 31 32" fill="none" xmlns="http://www.w3.org/2000/svg">
<mask id="mask0_6_27913" style="mask-type:luminance" maskUnits="userSpaceOnUse" x="0" y="10" width="22" height="22">
<path fill-rule="evenodd" clip-rule="evenodd" d="M0 10.3047H21.1525V31.9996H0V10.3047Z" fill="white"/>
</mask>
<g mask="url(#mask0_6_27913)">
<path fill-rule="evenodd" clip-rule="evenodd" d="M0 20.9533C0.0924155 20.3252 0.112371 19.6884 0.239891 19.0641C0.858935 16.0326 2.29919 13.5467 4.908 11.8552C6.64826 10.7268 8.58107 10.2978 10.6281 10.3048C13.1634 10.3134 15.4594 11.0151 17.4045 12.7146C19.2348 14.3137 20.343 16.3596 20.8496 18.7382C21.4551 21.5811 21.1771 24.3295 19.7975 26.9055C18.2933 29.7143 15.9076 31.3167 12.8726 31.9849C12.6011 32.0447 12.4431 31.921 12.4123 31.6411C12.4033 31.5596 12.4076 31.4766 12.4074 31.3944C12.4017 28.7397 12.3961 26.0851 12.391 23.4305C12.3901 22.9382 12.4639 22.8654 12.9559 22.8651C13.2797 22.8648 13.6036 22.8617 13.9273 22.8661C14.1351 22.8689 14.3116 22.8078 14.4141 22.6166C14.5157 22.4274 14.4828 22.2406 14.3641 22.0653C13.3308 20.5403 12.4187 18.938 11.4643 17.3626C11.3159 17.1175 11.1587 16.8765 10.9496 16.678C10.6845 16.4263 10.4747 16.4274 10.2107 16.6851C10.0197 16.8716 9.86905 17.0922 9.73101 17.3199C8.76536 18.9124 7.8392 20.5298 6.8037 22.0783C6.54313 22.4679 6.75394 22.8508 7.21991 22.8631C7.55367 22.8719 7.88781 22.8675 8.22169 22.8644C8.50034 22.8618 8.62652 23.0008 8.62701 23.2806C8.63151 26.0278 8.63924 28.775 8.64222 31.5223C8.64264 31.9195 8.47953 32.0355 8.06643 31.9312C3.89447 30.8783 1.29765 28.2317 0.296898 23.9769C0.160252 23.3961 0.0825595 22.8052 0.051227 22.2082C0.0454473 22.0979 0.0176435 21.989 0 21.8794C0 21.5707 0 21.262 0 20.9533Z" fill="white"/>
</g>
<mask id="mask1_6_27913" style="mask-type:luminance" maskUnits="userSpaceOnUse" x="21" y="0" width="10" height="23">
<path fill-rule="evenodd" clip-rule="evenodd" d="M21.1523 0.541992H30.9151V22.7793H21.1523V0.541992Z" fill="white"/>
</mask>
<g mask="url(#mask1_6_27913)">
<path opacity="0.35619" fill-rule="evenodd" clip-rule="evenodd" d="M21.9084 0.541992C22.5127 0.739246 23.1348 0.883959 23.7185 1.14229C27.8022 2.94965 30.2473 6.03166 30.818 10.4268C31.5163 15.8037 28.3884 20.8115 23.2953 22.6984C22.9366 22.8313 22.93 22.8308 22.9619 22.4629C23.2016 19.7028 22.6213 17.1249 21.2044 14.7361C21.1093 14.5757 21.1586 14.4799 21.2392 14.3555C21.9579 13.2471 22.6736 12.1369 23.391 11.0277C23.5145 10.8367 23.6507 10.6513 23.5198 10.4074C23.3819 10.1504 23.1415 10.1628 22.9009 10.1654C22.612 10.1684 22.323 10.1675 22.0341 10.1657C21.579 10.1627 21.429 10.0126 21.4256 9.55235C21.4222 9.09253 21.423 8.6327 21.4223 8.17287C21.4191 5.85321 21.4209 3.53361 21.4073 1.21407C21.4053 0.872284 21.5002 0.638345 21.8465 0.541992H21.9084Z" fill="white"/>
</g>
<mask id="mask2_6_27913" style="mask-type:luminance" maskUnits="userSpaceOnUse" x="8" y="0" width="10" height="10">
<path fill-rule="evenodd" clip-rule="evenodd" d="M8.13574 0H17.3561V9.76271H8.13574V0Z" fill="white"/>
</mask>
<g mask="url(#mask2_6_27913)">
<path opacity="0.35619" fill-rule="evenodd" clip-rule="evenodd" d="M17.0178 0C17.2677 0.130514 17.3393 0.338005 17.3393 0.614329C17.3392 3.43657 17.3497 6.25882 17.3561 9.08107C17.3574 9.67581 16.9084 9.93516 16.3739 9.64105C14.0999 8.38976 11.666 7.88487 9.08293 8.07439C8.77631 8.0969 8.47124 8.14167 8.13574 8.17947C8.43378 7.12249 8.86175 6.15542 9.43268 5.25413C11.1122 2.60275 13.4742 0.877471 16.5104 0.0741175C16.5783 0.0561477 16.6581 0.0680239 16.7073 0H17.0178Z" fill="white"/>
</g>
</svg>
