<svg width="28" height="36" viewBox="0 0 28 36" fill="none" xmlns="http://www.w3.org/2000/svg">
<g clip-path="url(#clip0_1676_26038)">
<path d="M14.4666 0.000534712C15.034 0.109081 15.6069 0.184476 16.1612 0.361465C19.4765 1.4218 21.6171 4.65092 21.2387 8.03672C20.8641 11.3878 18.3264 13.9779 14.9079 14.5003C10.9739 15.1013 7.12068 12.3481 6.50306 8.50031C6.47084 8.2998 6.4823 8.09126 6.40039 7.89876C6.40039 7.48971 6.40039 7.08065 6.40039 6.67106C6.41732 6.60262 6.44189 6.53525 6.44954 6.46627C6.76627 3.58203 8.87635 1.12289 11.7269 0.299973C12.2157 0.158809 12.7186 0.104269 13.2128 0H14.4666V0.000534712ZM11.6849 9.16335C11.6958 9.79806 12.0207 10.4675 12.6187 10.7894C13.0408 11.0167 13.2085 11.2626 13.1648 11.7294C13.1315 12.085 13.4679 12.3615 13.8283 12.37C14.1952 12.3786 14.5021 12.1 14.5284 11.7273C14.5393 11.568 14.5415 11.407 14.5327 11.2477C14.5256 11.1204 14.578 11.0573 14.6949 11.0092C16.343 10.3301 16.3479 8.11479 15.2454 7.18759C14.8511 6.85607 14.3847 6.7117 13.8971 6.59353C13.2292 6.43151 12.9622 6.0016 13.0992 5.3391C13.1681 5.00651 13.4635 4.76214 13.8124 4.75038C14.1641 4.73862 14.4808 4.95731 14.572 5.28135C14.5983 5.37492 14.6064 5.47384 14.6212 5.57063C14.6796 5.9476 14.9936 6.20747 15.3546 6.17699C15.7297 6.14544 15.9995 5.86097 15.9968 5.47705C15.9908 4.75947 15.7008 4.14722 15.0744 3.79378C14.6485 3.55316 14.4781 3.30398 14.5174 2.83076C14.5464 2.47785 14.1991 2.20355 13.8403 2.20515C13.4815 2.20622 13.1822 2.47785 13.1555 2.83611C13.1446 2.98636 13.1424 3.13876 13.1517 3.28901C13.1599 3.42857 13.1194 3.50771 12.9786 3.57348C12.006 4.03012 11.5817 4.82684 11.6925 5.9599C11.7804 6.86196 12.4461 7.61964 13.3794 7.87844C13.5973 7.93886 13.8234 7.97683 14.0341 8.05383C14.6125 8.26504 14.8238 9.12699 14.4109 9.57562C14.1974 9.80768 13.9244 9.88415 13.6197 9.79218C13.2647 9.6847 13.114 9.42269 13.0698 9.07299C13.0135 8.62543 12.7061 8.36236 12.3167 8.40192C11.9224 8.44203 11.6783 8.73719 11.6854 9.16496L11.6849 9.16335Z" fill="white"/>
<path d="M0.400391 28.2614C0.740057 27.3855 1.49857 26.9732 2.31006 26.6369C3.33015 26.2145 4.40813 26.0198 5.50521 25.9113C5.72201 25.8899 5.77607 25.9305 5.69853 26.1482C5.59969 26.4252 5.57511 26.7192 5.57621 27.0155C5.58003 28.3052 5.57457 29.5949 5.58112 30.8841C5.58221 31.0622 5.55873 31.1274 5.34685 31.1039C4.0488 30.9584 2.78515 30.7007 1.63073 30.0692C1.07153 29.7634 0.605719 29.3655 0.400391 28.741V28.2608V28.2614Z" fill="white" fill-opacity="0.45"/>
<path d="M0.39953 31.25C0.641446 31.3072 0.82384 31.4762 1.03845 31.5842C2.1907 32.1644 3.4254 32.4633 4.69833 32.637C4.93151 32.6691 5.16633 32.6943 5.40114 32.7124C5.53766 32.7231 5.58408 32.7782 5.57862 32.9135C5.56169 33.3498 5.57152 33.7851 5.72443 34.2037C5.77467 34.3417 5.69931 34.3529 5.59173 34.3422C4.19374 34.2027 2.82689 33.9503 1.58454 33.261C1.05265 32.9659 0.627248 32.5686 0.398438 31.9975V31.2505L0.39953 31.25Z" fill="white" fill-opacity="0.45"/>
<path d="M13.7453 29.5972C12.1114 29.5705 10.5053 29.3892 8.98504 28.7497C8.54053 28.5626 8.12441 28.3289 7.7689 28.0027C7.02677 27.322 7.02349 26.5307 7.76781 25.8537C8.4324 25.249 9.25426 24.934 10.1094 24.7169C12.6411 24.0742 15.1733 24.0854 17.6902 24.8014C18.4351 25.0132 19.1412 25.319 19.7228 25.843C20.2508 26.3189 20.4097 26.8435 20.1984 27.3675C20.0744 27.6744 19.8587 27.9129 19.6026 28.1166C18.8665 28.7027 17.9917 28.9909 17.0912 29.2203C16.6166 29.3411 16.1333 29.4229 15.6473 29.4812C15.016 29.5566 14.382 29.6015 13.7453 29.5978V29.5972Z" fill="white"/>
<path d="M21.9255 28.6909C21.8933 28.0535 21.9801 27.2712 21.8818 26.4921C21.8665 26.3691 21.8458 26.2435 21.8004 26.1291C21.7327 25.9574 21.7524 25.89 21.9621 25.9109C23.2683 26.0398 24.544 26.2804 25.7219 26.8814C26.126 27.0878 26.5001 27.337 26.784 27.6968C27.2171 28.2471 27.2089 28.8363 26.7529 29.3758C26.4285 29.7598 26.0086 30.0223 25.5564 30.2362C24.4648 30.7522 23.2978 30.9853 22.1013 31.1099C21.9036 31.1302 21.9239 31.0324 21.9244 30.9126C21.9255 30.2196 21.9249 29.5272 21.9249 28.6909H21.9255Z" fill="white" fill-opacity="0.45"/>
<path d="M7.2273 29.6494C10.3536 31.7113 17.1868 31.6942 20.2651 29.6569C20.382 30.2911 20.1909 30.8076 19.7087 31.23C19.1768 31.6958 18.5444 31.9829 17.8776 32.1968C16.2437 32.7213 14.5618 32.8646 12.8531 32.7679C11.6064 32.6973 10.3853 32.4968 9.21615 32.0487C8.79238 31.8861 8.38937 31.684 8.02404 31.4161C7.35617 30.9263 7.16013 30.4969 7.2273 29.6499V29.6494Z" fill="white"/>
<path d="M7.23647 32.8478C10.0057 34.7412 16.8771 35.0657 20.2672 32.8665C20.383 33.5103 20.1798 34.0332 19.6807 34.4551C18.9965 35.0337 18.1768 35.3411 17.3222 35.5625C15.6189 36.0042 13.8884 36.0913 12.1387 35.91C11.0411 35.7962 9.97292 35.5737 8.95719 35.1422C8.54763 34.9684 8.167 34.7465 7.82625 34.4599C7.32439 34.0375 7.12125 33.5124 7.23647 32.8467V32.8478Z" fill="white"/>
<path d="M27.0722 31.2295C27.235 32.1005 26.832 32.6636 26.1756 33.0967C25.2538 33.7057 24.2085 33.9907 23.1311 34.1806C22.7385 34.2495 22.3404 34.287 21.945 34.3404C21.7932 34.3613 21.7266 34.3378 21.7888 34.1608C21.915 33.8041 21.957 33.4293 21.9188 33.0561C21.891 32.7855 21.9958 32.7133 22.2536 32.693C23.3151 32.6085 24.3527 32.4 25.3586 32.0524C25.956 31.846 26.5261 31.5829 27.0722 31.2295Z" fill="white" fill-opacity="0.45"/>
<path d="M3.40148 12.2161C3.51343 12.0605 3.64886 11.968 3.8591 12.0102C5.90584 12.4236 7.82424 13.1363 9.52531 14.3501C11.2133 15.5554 12.3158 17.1894 13.0989 19.0551C13.4752 19.9523 13.7542 20.879 13.9552 21.8286C14.0398 22.2286 13.8875 22.42 13.5227 22.3467C11.4393 21.9275 9.48981 21.195 7.77237 19.9384C6.11554 18.7257 5.03811 17.0948 4.27195 15.2431C3.92081 14.394 3.65432 13.5186 3.46046 12.6225C3.44954 12.5722 3.45828 12.5134 3.40039 12.4829V12.2161H3.40148Z" fill="white"/>
<path d="M14.502 21.9714C14.6281 21.2902 14.816 20.5962 15.0546 19.9155C15.6804 18.129 16.5662 16.4933 17.9702 15.1678C19.337 13.8775 20.9867 13.0637 22.7708 12.4873C23.3562 12.298 23.952 12.1467 24.5565 12.0285C24.953 11.9509 25.1212 12.1151 25.0414 12.5065C24.6903 14.2192 24.0776 15.8313 23.1389 17.3221C21.8463 19.3749 19.9563 20.6871 17.7058 21.5592C16.8277 21.8998 15.9234 22.1538 14.9994 22.3404C14.6691 22.4072 14.4916 22.2843 14.5025 21.972L14.502 21.9714Z" fill="white"/>
<path d="M15.0192 24.0908C15.0192 24.4732 15.0143 24.8555 15.0219 25.2373C15.0246 25.387 15.0001 25.4618 14.8166 25.4543C14.4272 25.4394 14.0368 25.4442 13.6469 25.4533C13.5038 25.4565 13.4585 25.4121 13.459 25.2736C13.4639 24.4651 13.4639 23.6561 13.459 22.8471C13.4579 22.6974 13.5152 22.6637 13.654 22.6915C14.04 22.769 14.4294 22.7717 14.8155 22.6963C14.9728 22.6653 15.0252 22.7054 15.0219 22.8642C15.0137 23.2727 15.0192 23.6818 15.0192 24.0908Z" fill="white"/>
</g>
<defs>
<clipPath id="clip0_1676_26038">
<rect width="26.7097" height="36" fill="white" transform="translate(0.400391)"/>
</clipPath>
</defs>
</svg>
