<svg width="21" height="20" viewBox="0 0 21 20" fill="none" xmlns="http://www.w3.org/2000/svg">
    <mask id="mask0_2964_14452" style="mask-type:luminance" maskUnits="userSpaceOnUse" x="0" y="6" width="14" height="14">
        <path fill-rule="evenodd" clip-rule="evenodd" d="M0.220398 6.29468H13.9045V19.8539H0.220398V6.29468Z" fill="white" />
    </mask>
    <g mask="url(#mask0_2964_14452)">
        <path fill-rule="evenodd" clip-rule="evenodd" d="M0.220398 12.95C0.280184 12.5575 0.293094 12.1595 0.37559 11.7693C0.776066 9.87462 1.70781 8.32092 3.39552 7.26375C4.52134 6.55852 5.77173 6.29036 7.09603 6.29473C8.73616 6.30014 10.2215 6.73868 11.4799 7.80088C12.6639 8.80029 13.3809 10.079 13.7086 11.5656C14.1003 13.3424 13.9204 15.0601 13.0279 16.6701C12.0548 18.4256 10.5115 19.4271 8.54806 19.8447C8.37236 19.8821 8.27019 19.8048 8.25023 19.6298C8.24445 19.5789 8.2472 19.5271 8.24708 19.4756C8.24342 17.8165 8.23976 16.1574 8.2365 14.4982C8.23591 14.1906 8.28361 14.1451 8.6019 14.1449C8.81137 14.1447 9.02092 14.1427 9.23035 14.1455C9.36476 14.1473 9.47898 14.1091 9.5453 13.9896C9.61099 13.8713 9.58973 13.7546 9.5129 13.645C8.84443 12.6919 8.25436 11.6905 7.63694 10.7058C7.54095 10.5527 7.43928 10.402 7.30401 10.2779C7.13248 10.1207 6.99673 10.1214 6.82599 10.2824C6.70241 10.399 6.60495 10.5369 6.51565 10.6791C5.89094 11.6745 5.29179 12.6853 4.6219 13.6531C4.45332 13.8967 4.5897 14.1359 4.89115 14.1436C5.10707 14.1491 5.32323 14.1464 5.53923 14.1445C5.7195 14.1429 5.80113 14.2297 5.80144 14.4046C5.80436 16.1216 5.80935 17.8386 5.81128 19.5556C5.81156 19.8039 5.70604 19.8764 5.43879 19.8112C2.73984 19.1531 1.05988 17.499 0.412469 14.8397C0.324069 14.4768 0.273808 14.1075 0.253538 13.7343C0.249799 13.6654 0.231812 13.5973 0.220398 13.5288C0.220398 13.3359 0.220398 13.1429 0.220398 12.95Z" fill="white" />
    </g>
    <mask id="mask1_2964_14452" style="mask-type:luminance" maskUnits="userSpaceOnUse" x="13" y="0" width="8" height="15">
        <path fill-rule="evenodd" clip-rule="evenodd" d="M13.9046 0.531982H20.2204V14.4302H13.9046V0.531982Z" fill="white" />
    </mask>
    <g mask="url(#mask1_2964_14452)">
        <path fill-rule="evenodd" clip-rule="evenodd" d="M14.3938 0.532227C14.7847 0.655509 15.1872 0.745955 15.5648 0.907412C18.2067 2.037 19.7884 3.96324 20.1577 6.71018C20.6094 10.0707 18.5858 13.2006 15.291 14.3799C15.059 14.463 15.0547 14.4626 15.0753 14.2327C15.2304 12.5076 14.8549 10.8964 13.9383 9.40346C13.8768 9.30322 13.9087 9.24334 13.9609 9.16561C14.4258 8.47289 14.8888 7.77897 15.3529 7.08575C15.4328 6.96634 15.5209 6.85047 15.4362 6.69804C15.347 6.53743 15.1915 6.54519 15.0358 6.5468C14.8489 6.54868 14.662 6.54814 14.4751 6.54699C14.1807 6.54515 14.0837 6.45132 14.0815 6.16366C14.0793 5.87627 14.0798 5.58888 14.0793 5.30149C14.0772 3.85171 14.0784 2.40197 14.0696 0.95227C14.0683 0.738657 14.1297 0.592447 14.3537 0.532227H14.3938Z" fill="white" />
    </g>
    <mask id="mask2_2964_14452" style="mask-type:luminance" maskUnits="userSpaceOnUse" x="5" y="0" width="7" height="7">
        <path fill-rule="evenodd" clip-rule="evenodd" d="M5.48396 0.193115H11.4488V6.29477H5.48396V0.193115Z" fill="white" />
    </mask>
    <g mask="url(#mask2_2964_14452)">
        <path fill-rule="evenodd" clip-rule="evenodd" d="M11.23 0.193115C11.3917 0.274686 11.438 0.404367 11.438 0.577068C11.4379 2.34096 11.4447 4.10485 11.4488 5.86874C11.4497 6.24045 11.1592 6.40255 10.8135 6.21873C9.34234 5.43668 7.76776 5.12112 6.09672 5.23957C5.89835 5.25364 5.701 5.28162 5.48396 5.30525C5.67676 4.64464 5.95363 4.04022 6.32298 3.47692C7.40952 1.81983 8.93752 0.741531 10.9017 0.239438C10.9457 0.228207 10.9973 0.23563 11.0291 0.193115H11.23Z" fill="white" />
    </g>
</svg>