<svg width="14" height="14" viewBox="0 0 14 14" xmlns="http://www.w3.org/2000/svg" xmlns:xlink="http://www.w3.org/1999/xlink">
    <defs>
        <path id="5mcyznmf1a" d="M0 0h13.974v14H0z" />
        <path id="23hv6ylwac" d="M0 0h1.458v1.458H0z" />
    </defs>
    <g fill="none" fill-rule="evenodd">
        <g>
            <mask id="3dweux3dhb" fill="#fff">
                <use xlink:href="#5mcyznmf1a" />
            </mask>
            <path d="M6.988 1.095c-3.237-.008-5.88 2.637-5.893 5.898-.013 3.232 2.633 5.892 5.872 5.902 3.248.01 5.895-2.627 5.904-5.88a5.901 5.901 0 0 0-5.883-5.92M7.37 14h-.756c-.049-.028-.103-.027-.156-.029a4.904 4.904 0 0 1-.805-.104c-1.579-.317-2.908-1.076-3.952-2.303C.228 9.832-.28 7.825.144 5.602c.323-1.696 1.203-3.08 2.566-4.134C4.356.196 6.222-.236 8.266.12a6.653 6.653 0 0 1 3.357 1.648c1.245 1.119 2.006 2.508 2.263 4.169.035.228.059.458.088.688v.758c-.047.184-.04.374-.066.56-.197 1.374-.736 2.594-1.65 3.639-1.128 1.286-2.536 2.073-4.23 2.332-.218.033-.438.058-.658.086" fill="#ADABAB" mask="url(#3dweux3dhb)" />
        </g>
        <path d="M7.03 10.5c-.404 0-.73-.304-.73-.68V6.221c0-.375.326-.68.73-.68.402 0 .728.305.728.68v3.6c0 .375-.326.679-.729.679" fill="#ADABAB" />
        <g transform="translate(6.3 3.5)">
            <mask id="akqzfbpqed" fill="#fff">
                <use xlink:href="#23hv6ylwac" />
            </mask>
            <path d="M1.458.73A.73.73 0 1 1 0 .73a.73.73 0 0 1 1.458 0" fill="#ADABAB" mask="url(#akqzfbpqed)" />
        </g>
    </g>
</svg>