<svg width="14" height="14" viewBox="0 0 14 14" fill="none" xmlns="http://www.w3.org/2000/svg">
    <path fill-rule="evenodd" clip-rule="evenodd" d="M0 6.46268C0.0739598 6.12089 0.0895686 5.76914 0.181289 5.43016C0.962389 2.54365 2.81499 0.756984 5.73648 0.153782C7.52457 -0.215397 9.21193 0.167968 10.76 1.14112C10.816 1.17634 10.8721 1.21157 10.9362 1.25184C10.9674 1.16708 10.9154 1.10632 10.8971 1.04243C10.7745 0.615447 10.9884 0.187698 11.3996 0.0456868C11.8112 -0.0965071 12.2552 0.101631 12.4027 0.523034C12.6782 1.31011 12.9462 2.10022 13.1957 2.89587C13.3593 3.41738 12.9775 3.90556 12.4227 3.90976C11.6771 3.91537 10.9314 3.91165 10.1857 3.91111C9.73406 3.91074 9.4232 3.68966 9.32845 3.30349C9.2414 2.94872 9.42126 2.61568 9.81564 2.40478C9.78479 2.32958 9.70868 2.31109 9.64854 2.27703C6.41685 0.445938 2.30792 2.3709 1.64174 6.02713C1.10323 8.9826 3.07535 11.8241 6.03122 12.3518C8.96901 12.8763 11.8152 10.8957 12.3275 7.96824C12.384 7.64586 12.4046 7.32004 12.4128 6.99207C12.4231 6.58489 12.7215 6.27563 13.1117 6.23774C13.5085 6.19923 13.864 6.44492 13.9489 6.83394C13.9956 7.04805 13.9742 7.26967 13.9565 7.48641C13.802 9.38267 13.0354 10.9861 11.6088 12.2487C10.2294 13.4695 8.60297 14.0458 6.75951 13.9972C3.65229 13.9151 0.882667 11.7201 0.169291 8.55051C0.0980295 8.23378 0.0557251 7.91051 0 7.59031C0 7.21442 0 6.83857 0 6.46268Z" fill="#CDCDCD" />
</svg>