<svg width="14" height="14" viewBox="0 0 14 14" fill="none" xmlns="http://www.w3.org/2000/svg">
    <path d="M5.22301 0C5.50508 0 5.78742 0 6.06949 0C6.10417 0.0284375 6.14676 0.0235156 6.1869 0.02625C6.40917 0.0421094 6.62871 0.0776563 6.84525 0.128242C8.44537 0.501484 9.67386 1.3918 10.5151 2.80355C11.2158 3.97906 11.4324 5.25328 11.2112 6.59859C11.0547 7.54934 10.6713 8.40574 10.0665 9.1577C9.99115 9.25148 9.98187 9.30234 10.0736 9.39723C11.1306 10.4896 12.1816 11.5875 13.234 12.6845C13.278 12.7304 13.3205 12.7783 13.358 12.8294C13.5628 13.1091 13.5431 13.4848 13.3184 13.7495C13.2113 13.8756 13.0636 13.9303 12.9233 13.9997H12.5956C12.3345 13.9054 12.1614 13.7003 11.9771 13.5084C10.9744 12.4633 9.96985 11.4204 8.96882 10.3739C8.90301 10.3053 8.86069 10.2938 8.77795 10.3493C7.88451 10.9495 6.89986 11.264 5.82264 11.2998C4.79321 11.334 3.82795 11.1032 2.9315 10.6039C1.85429 10.004 1.04958 9.14211 0.526678 8.02074C0.0119633 6.91633 -0.121562 5.76324 0.108899 4.5716C0.356017 3.29328 0.986508 2.22906 1.9657 1.37676C2.71032 0.728711 3.56964 0.302148 4.54036 0.110469C4.76645 0.0658984 4.99528 0.0363672 5.22301 0ZM5.64761 9.82324C7.9454 9.82406 9.8112 7.95785 9.81394 5.65633C9.81667 3.36 7.95277 1.48613 5.65553 1.47629C3.36676 1.46645 1.47992 3.3548 1.48047 5.65523C1.48102 7.95238 3.35065 9.8227 5.64761 9.82352V9.82324Z" fill="#8B8B8C" />
</svg>