<svg width="20" height="20" viewBox="0 0 20 20" fill="none" xmlns="http://www.w3.org/2000/svg">
    <g clip-path="url(#clip0_2964_14442)">
        <path d="M0 19.9956C0.0997388 18.6503 0.538417 17.4341 1.3808 16.3731C2.00773 15.5838 2.78103 14.9798 3.69422 14.5543C3.80734 14.5016 3.9196 14.4761 4.04525 14.4761C8.01364 14.4782 11.982 14.4782 15.9504 14.4761C16.0761 14.4761 16.1883 14.5003 16.3006 14.556C18.4249 15.6075 19.6425 17.3071 19.9521 19.6582C19.9594 19.7139 19.9775 19.7683 19.9905 19.8232C20.0229 19.971 19.9659 20.0008 19.8182 19.9999C18.497 19.9926 17.1758 19.9956 15.8546 19.9956C15.8537 19.6219 15.8615 19.2482 15.8503 18.8749C15.8123 17.6173 14.7834 16.5649 13.5273 16.555C11.1725 16.536 8.81717 16.5394 6.46229 16.5541C5.40964 16.5606 4.48263 17.327 4.21882 18.3444C4.0772 18.8896 4.15794 19.4452 4.13592 19.996H0V19.9956Z" fill="white" />
        <path d="M15.1655 19.9957H4.82546C4.82546 19.6367 4.81985 19.2777 4.82762 18.9191C4.84791 18.001 5.58969 17.245 6.50893 17.2411C8.83315 17.2312 11.1574 17.2325 13.4816 17.2411C14.2976 17.2441 14.9833 17.839 15.1292 18.6426C15.2104 19.0906 15.1491 19.5451 15.1655 19.9961V19.9957Z" fill="white" />
        <path d="M10.0775 2.75024C10.9587 2.76191 11.8793 2.91398 12.7519 3.30453C14.7419 4.19579 15.6318 6.1144 14.9647 8.19415C14.3576 10.0864 13.0049 11.2105 11.09 11.5946C9.0542 12.0028 7.27272 11.4378 5.92042 9.83626C4.80688 8.5173 4.49428 6.98621 5.13416 5.3454C5.56334 4.24547 6.45495 3.60262 7.52315 3.18745C8.32149 2.87683 9.15567 2.7537 10.0775 2.75068V2.75024ZM14.1301 7.0575C14.5079 7.0575 14.5023 7.05836 14.4565 6.68294C14.3606 5.89709 14.029 5.22962 13.4574 4.68527C12.5934 3.8627 11.5287 3.53436 10.3685 3.45055C9.99589 3.42377 9.99546 3.42765 9.99546 3.80826C9.99546 3.85147 10.0015 3.89553 9.99416 3.93744C9.9648 4.10506 10.0425 4.13358 10.1962 4.13746C10.8836 4.15647 11.5494 4.28651 12.1681 4.60016C13.0545 5.04989 13.6335 5.73292 13.7704 6.74558C13.8127 7.0575 13.814 7.05707 14.1297 7.05707L14.1301 7.0575Z" fill="white" />
        <path d="M7.07628 11.7186H5.98606C5.84228 11.7186 5.69505 11.6978 5.55602 11.7225C5.1821 11.7886 4.95499 11.6075 4.724 11.3362C1.57078 7.63382 3.23785 1.78986 7.86858 0.333951C11.8232 -0.908975 15.8839 1.42956 16.7319 5.49013C17.2151 7.80317 16.5912 9.85181 15.0144 11.6097C14.9617 11.6685 14.912 11.7212 14.8183 11.7207C14.188 11.7168 13.5571 11.7186 12.8633 11.7186C12.9812 11.6451 13.0494 11.6028 13.1176 11.5605C14.8874 10.4683 15.8447 8.88365 15.8408 6.80217C15.8373 4.97516 14.9021 3.66354 13.3132 2.81764C12.0865 2.16486 10.7575 1.99205 9.38754 2.08537C8.27617 2.16097 7.22524 2.44351 6.27621 3.04748C4.53704 4.15475 3.77713 6.09064 4.28791 8.09262C4.68514 9.65006 5.58495 10.8213 6.97524 11.6196C7.00633 11.6374 7.03656 11.6564 7.06635 11.6758C7.0698 11.678 7.06894 11.687 7.07585 11.7186H7.07628Z" fill="white" />
        <path d="M9.99029 13.7879C7.98688 13.7879 5.98347 13.7879 3.98006 13.7879C3.52929 13.7879 3.44682 13.7036 3.44639 13.244C3.44639 13.1075 3.4451 12.9709 3.44639 12.8344C3.44985 12.5273 3.56858 12.4115 3.88162 12.4084C3.91745 12.4084 3.95329 12.4084 3.98913 12.4084C7.99595 12.4084 12.0028 12.4084 16.0096 12.4084C16.4608 12.4084 16.5433 12.4927 16.5437 12.9519C16.5437 13.0884 16.545 13.225 16.5437 13.3615C16.5402 13.6682 16.4206 13.787 16.108 13.7875C14.7652 13.7883 13.4224 13.7879 12.0796 13.7879C11.3832 13.7879 10.6867 13.7879 9.98986 13.7879H9.99029Z" fill="white" />
        <path d="M17.38 8.61486C17.4767 8.15217 17.5471 7.70675 17.5691 7.25659C17.6002 6.61676 17.5558 5.98169 17.4124 5.35613C17.3792 5.2101 17.4055 5.17036 17.5678 5.16042C18.3541 5.11203 18.6585 5.40062 18.6175 6.20418C18.589 6.75458 18.6136 7.308 18.6114 7.85969C18.6097 8.33016 18.3312 8.61011 17.8653 8.61443C17.709 8.61573 17.5523 8.61443 17.3796 8.61443L17.38 8.61486Z" fill="white" />
        <path d="M1.37864 6.89041C1.37864 6.56077 1.37648 6.23071 1.37907 5.90108C1.38295 5.45653 1.66231 5.1701 2.10099 5.16794C2.2642 5.16707 2.48181 5.09708 2.57291 5.20207C2.63854 5.27767 2.53923 5.49627 2.51462 5.65094C2.36825 6.56553 2.37171 7.47839 2.57334 8.38477C2.61479 8.57097 2.585 8.65046 2.3812 8.61676C2.31126 8.6051 2.23829 8.61503 2.16662 8.61503C1.65367 8.61331 1.38036 8.34372 1.37907 7.83696C1.3782 7.52159 1.37907 7.20621 1.37907 6.89084L1.37864 6.89041Z" fill="white" />
    </g>
    <defs>
        <clipPath id="clip0_2964_14442">
            <rect width="20" height="20" fill="white" />
        </clipPath>
    </defs>
</svg>