<svg width="32" height="32" viewBox="0 0 32 32" fill="none" xmlns="http://www.w3.org/2000/svg">
<path fill-rule="evenodd" clip-rule="evenodd" d="M0 14.5637C0.0821614 13.9781 0.146551 13.3894 0.249738 12.8075C0.631635 10.6539 1.4729 8.6926 2.7525 6.91915C2.78191 6.87835 2.81902 6.84306 2.87546 6.7793C4.23703 7.79758 5.5916 8.81055 6.9543 9.82972C4.8315 13.2933 4.45361 16.902 6.20759 20.5745C7.96321 24.2505 11.0067 26.2277 15.0412 26.7578V31.8874C14.5663 31.849 14.0921 31.8366 13.6259 31.7687C8.20725 30.9799 4.41919 27.9366 1.89084 23.2011C0.821301 21.198 0.223143 19.0406 0.0520001 16.7706C0.0451168 16.6795 0.0177714 16.59 0 16.4998C0 15.8544 0 15.2091 0 14.5637Z" fill="white"/>
<mask id="mask0_6_27895" style="mask-type:luminance" maskUnits="userSpaceOnUse" x="4" y="0" width="28" height="15">
<path fill-rule="evenodd" clip-rule="evenodd" d="M4.02441 0H31.9996V14.9756H4.02441V0Z" fill="white"/>
</mask>
<g mask="url(#mask0_6_27895)">
<path opacity="0.473145" fill-rule="evenodd" clip-rule="evenodd" d="M31.9996 14.9731C31.2675 14.9731 30.5941 14.9731 29.9206 14.9731C28.984 14.9732 28.0474 14.9709 27.1108 14.9755C26.9369 14.9764 26.8222 14.9643 26.803 14.7394C26.4752 10.8979 24.4514 8.18522 21.1102 6.43837C18.2477 4.94176 15.2347 4.63651 12.1404 5.69479C10.6776 6.19514 9.42516 7.03534 8.3622 8.15794C8.29812 8.22564 8.22691 8.28659 8.13267 8.37551C6.77497 7.35841 5.40689 6.33356 4.02441 5.29793C4.86155 4.26851 5.79736 3.38676 6.86295 2.64775C9.90486 0.538083 13.2944 -0.247049 16.9522 0.0664528C20.7016 0.387777 24.0302 1.75918 26.878 4.22483C29.6145 6.59412 31.2969 9.57001 31.829 13.1676C31.915 13.7494 31.9414 14.34 31.9996 14.9731Z" fill="white"/>
</g>
<path opacity="0.473145" fill-rule="evenodd" clip-rule="evenodd" d="M16.9531 26.8241C17.8775 26.5889 18.8039 26.4471 19.6591 26.1196C23.6275 24.6 25.9909 21.723 26.7366 17.5335C26.8597 16.8421 26.8416 16.8389 27.5461 16.8389C28.8886 16.8389 30.2312 16.8389 31.5737 16.8389C31.6967 16.8389 31.8198 16.8389 31.9437 16.8389C31.6787 24.5681 25.0984 31.5112 16.9531 31.8513V26.8241Z" fill="white"/>
<path fill-rule="evenodd" clip-rule="evenodd" d="M14.3175 19.9792C14.3175 19.8596 14.3175 19.7578 14.3175 19.6561C14.3175 17.0349 14.3171 14.4137 14.3177 11.7924C14.3179 11.1024 14.544 10.8771 15.2318 10.8767C15.8039 10.8765 16.376 10.872 16.9481 10.8785C17.3978 10.8837 17.6732 11.1497 17.6738 11.5973C17.6779 14.3538 17.6756 17.1102 17.6748 19.8667C17.6748 19.8968 17.6663 19.9268 17.6583 19.9792H14.3175Z" fill="white"/>
<path fill-rule="evenodd" clip-rule="evenodd" d="M12.5627 19.9967C11.6245 19.9967 10.722 20.0075 9.81998 19.991C9.49427 19.985 9.23671 19.7099 9.23415 19.3711C9.2232 17.9472 9.22226 16.523 9.23421 15.099C9.23728 14.7341 9.49922 14.4806 9.88024 14.4696C10.5554 14.4502 11.2317 14.4505 11.9069 14.4691C12.289 14.4796 12.5553 14.7324 12.5578 15.0937C12.569 16.7144 12.5627 18.3352 12.5627 19.9967Z" fill="white"/>
<path fill-rule="evenodd" clip-rule="evenodd" d="M19.4325 16.6889C19.4371 16.3263 19.7097 16.0634 20.0759 16.0558C20.7191 16.0422 21.3639 16.0344 22.0059 16.0661C22.5993 16.0955 22.796 16.3263 22.7976 16.9184C22.7996 17.7077 22.7935 18.4971 22.7823 19.2863C22.7766 19.6894 22.5197 19.9879 22.142 19.9938C21.2502 20.0079 20.358 19.9983 19.4276 19.9983C19.4276 18.8678 19.4188 17.7781 19.4325 16.6889Z" fill="white"/>
</svg>
