<svg width="500" height="500" viewBox="0 0 500 500" fill="none" xmlns="http://www.w3.org/2000/svg">
<circle cx="250" cy="250" r="250" fill="#2A405F"/>
<g clip-path="url(#clip0_5848_15281)">
<path d="M94.3516 175.52V324.48C94.3516 334.056 99.3676 342.72 107.728 347.584L236.776 422.064C244.984 426.776 255.168 426.776 263.376 422.064L392.424 347.584C400.632 342.872 405.8 334.056 405.8 324.48V175.52C405.8 165.944 400.784 157.28 392.424 152.416L263.376 77.936C255.168 73.224 244.984 73.224 236.776 77.936L107.728 152.416C99.5196 157.128 94.5036 165.944 94.5036 175.52H94.3516Z" fill="#213147"/>
<path d="M278.12 278.88L259.728 329.344C259.272 330.712 259.272 332.232 259.728 333.752L291.344 420.544L327.976 399.416L284.048 278.88C282.984 276.144 279.184 276.144 278.12 278.88Z" fill="#12AAFF"/>
<path d="M315.056 194.064C313.992 191.328 310.192 191.328 309.128 194.064L290.736 244.528C290.28 245.896 290.28 247.416 290.736 248.936L342.568 391.056L379.2 369.928L315.056 194.216V194.064Z" fill="#12AAFF"/>
<path d="M250 83.56C250.912 83.56 251.824 83.864 252.584 84.32L392.12 164.88C393.792 165.792 394.704 167.616 394.704 169.44V330.56C394.704 332.384 393.64 334.208 392.12 335.12L252.584 415.68C251.824 416.136 250.912 416.44 250 416.44C249.088 416.44 248.176 416.136 247.416 415.68L107.88 335.12C106.208 334.208 105.296 332.384 105.296 330.56V169.288C105.296 167.464 106.36 165.64 107.88 164.728L247.416 84.168C248.176 83.712 249.088 83.408 250 83.408V83.56ZM250 60C244.984 60 240.12 61.216 235.56 63.8L96.024 144.36C87.056 149.528 81.584 158.952 81.584 169.288V330.408C81.584 340.744 87.056 350.168 96.024 355.336L235.56 435.896C239.968 438.48 244.984 439.696 250 439.696C255.016 439.696 259.88 438.48 264.44 435.896L403.976 355.336C412.944 350.168 418.416 340.744 418.416 330.408V169.288C418.416 158.952 412.944 149.528 403.976 144.36L264.288 63.8C259.88 61.216 254.864 60 249.848 60H250Z" fill="#9DCCED"/>
<path d="M157.584 391.208L170.504 355.944L196.344 377.376L172.176 399.568L157.584 391.208Z" fill="#213147"/>
<path d="M238.144 157.888H202.728C200.144 157.888 197.712 159.56 196.8 161.992L120.952 369.928L157.584 391.056L241.184 161.992C241.944 159.864 240.424 157.736 238.296 157.736L238.144 157.888Z" fill="white"/>
<path d="M300.16 157.888H264.744C262.16 157.888 259.728 159.56 258.816 161.992L172.176 399.416L208.808 420.544L303.048 161.992C303.808 159.864 302.288 157.736 300.16 157.736V157.888Z" fill="white"/>
</g>
<defs>
<clipPath id="clip0_5848_15281">
<rect width="380" height="380" fill="white" transform="translate(60 60)"/>
</clipPath>
</defs>
</svg>
