<svg width="500" height="500" viewBox="0 0 500 500" fill="none" xmlns="http://www.w3.org/2000/svg">
<g clip-path="url(#clip0_5848_15237)">
<path d="M250 500C388.542 500 500 388.542 500 250C500 111.458 388.542 0 250 0C111.458 0 0 111.458 0 250C0 388.542 111.458 500 250 500Z" fill="#2775CA"/>
<path d="M318.75 289.583C318.75 253.125 296.875 240.625 253.125 235.418C221.875 231.25 215.625 222.918 215.625 208.333C215.625 193.748 226.043 184.375 246.875 184.375C265.625 184.375 276.043 190.625 281.25 206.25C282.293 209.375 285.418 211.458 288.543 211.458H305.208C309.375 211.458 312.5 208.333 312.5 204.168V203.125C308.333 180.208 289.583 162.5 265.625 160.418V135.418C265.625 131.25 262.5 128.125 257.293 127.083H241.668C237.5 127.083 234.375 130.208 233.333 135.418V159.375C202.083 163.543 182.293 184.375 182.293 210.418C182.293 244.793 203.125 258.333 246.875 263.543C276.043 268.75 285.418 275 285.418 291.668C285.418 308.335 270.833 319.793 251.043 319.793C223.958 319.793 214.583 308.333 211.458 292.708C210.418 288.543 207.293 286.458 204.168 286.458H186.458C182.293 286.458 179.168 289.583 179.168 293.75V294.793C183.333 320.833 200 339.583 234.375 344.793V369.793C234.375 373.958 237.5 377.083 242.708 378.125H258.333C262.5 378.125 265.625 375 266.668 369.793V344.793C297.918 339.583 318.75 317.708 318.75 289.583Z" fill="white"/>
<path d="M196.875 398.957C115.625 369.792 73.9573 279.167 104.167 198.957C119.792 155.207 154.167 121.875 196.875 106.25C201.042 104.167 203.125 101.042 203.125 95.8325V81.25C203.125 77.0825 201.042 73.9575 196.875 72.9175C195.832 72.9175 193.75 72.9175 192.707 73.9575C93.7498 105.207 39.5823 210.417 70.8323 309.375C89.5823 367.707 134.375 412.5 192.707 431.25C196.875 433.332 201.042 431.25 202.082 427.082C203.125 426.042 203.125 425 203.125 422.917V408.332C203.125 405.207 200 401.042 196.875 398.957ZM307.292 73.9575C303.125 71.875 298.957 73.9575 297.917 78.125C296.875 79.1675 296.875 80.2075 296.875 82.2925V96.875C296.875 101.042 300 105.207 303.125 107.292C384.375 136.457 426.042 227.082 395.832 307.292C380.207 351.042 345.832 384.375 303.125 400C298.957 402.082 296.875 405.207 296.875 410.417V425C296.875 429.167 298.957 432.292 303.125 433.332C304.167 433.332 306.25 433.332 307.292 432.292C406.25 401.042 460.417 295.832 429.167 196.875C410.417 137.5 364.582 92.7075 307.292 73.9575Z" fill="white"/>
</g>
<defs>
<clipPath id="clip0_5848_15237">
<rect width="500" height="500" fill="white"/>
</clipPath>
</defs>
</svg>
